<?xml version="1.0" encoding="UTF-8" standalone="no"?>
<!DOCTYPE svg PUBLIC "-//W3C//DTD SVG 1.1//EN" "http://www.w3.org/Graphics/SVG/1.1/DTD/svg11.dtd">
<svg width="100%" height="100%" viewBox="0 0 59 46" version="1.1" xmlns="http://www.w3.org/2000/svg" xmlns:xlink="http://www.w3.org/1999/xlink" xml:space="preserve" xmlns:serif="http://www.serif.com/" style="fill-rule:evenodd;clip-rule:evenodd;stroke-linejoin:round;stroke-miterlimit:2;">
    <g transform="matrix(0.352778,0,0,-0.352778,-566.975,160.277)">
        <g id="Capa-1" serif:id="Capa 1">
            <g id="g15197">
                <g id="g1962" transform="matrix(1,0,0,1,1764.97,357.401)">
                    <path id="path1964" d="M0,0L-149.003,0L-149.003,85.873C-149.003,87.126 -147.991,88.143 -146.738,88.143L-2.268,88.143C-1.015,88.143 0,87.126 0,85.873L0,0Z" style="fill:rgb(218,218,218);fill-rule:nonzero;"/>
                </g>
                <g id="g1966" transform="matrix(1,0,0,1,1764.97,356.648)">
                    <path id="path1968" d="M0,0L-149.006,0C-149.42,0 -149.757,0.337 -149.757,0.751L-149.757,84.756C-149.757,87.454 -147.325,89.646 -144.337,89.646L-41,89.646C-40.586,89.646 -40.249,89.311 -40.249,88.894C-40.249,88.481 -40.586,88.143 -41,88.143L-144.337,88.143C-146.497,88.143 -148.255,86.624 -148.255,84.756L-148.255,1.505L-0.751,1.505L-0.751,11.358C-0.751,11.775 -0.414,12.112 0,12.112C0.414,12.112 0.751,11.775 0.751,11.358L0.751,0.751C0.751,0.337 0.414,0 0,0" style="fill:rgb(65,64,77);fill-rule:nonzero;"/>
                </g>
                <g id="g1970" transform="matrix(1,0,0,1,1764.97,377.024)">
                    <path id="path1972" d="M0,0C-0.414,0 -0.751,0.337 -0.751,0.751L-0.751,64.38C-0.751,66.248 -2.509,67.768 -4.666,67.768L-21.056,67.768C-21.472,67.768 -21.81,68.105 -21.81,68.519C-21.81,68.936 -21.472,69.27 -21.056,69.27L-4.666,69.27C-1.678,69.27 0.751,67.079 0.751,64.38L0.751,0.751C0.751,0.337 0.414,0 0,0" style="fill:rgb(65,64,77);fill-rule:nonzero;"/>
                </g>
                <g id="g1974" transform="matrix(1,0,0,1,1671.24,337.698)">
                    <path id="path1976" d="M0,0C-1.015,0 -1.845,-0.828 -1.845,-1.845C-1.845,-2.86 -1.015,-3.691 0,-3.691L38.469,-3.691C39.484,-3.691 40.311,-2.86 40.311,-1.845C40.311,-0.828 39.484,0 38.469,0L0,0ZM38.469,-5.196L0,-5.196C-1.848,-5.196 -3.348,-3.694 -3.348,-1.845C-3.348,0.003 -1.848,1.502 0,1.502L38.469,1.502C40.314,1.502 41.817,0.003 41.817,-1.845C41.817,-3.694 40.314,-5.196 38.469,-5.196" style="fill:rgb(65,64,77);fill-rule:nonzero;"/>
                </g>
                <g id="g1978" transform="matrix(1,0,0,1,1759.03,362.113)">
                    <path id="path1980" d="M0,0L-137.115,0C-137.523,0 -137.854,0.332 -137.854,0.743L-137.854,77.431C-137.854,77.842 -137.523,78.174 -137.115,78.174L0,78.174C0.411,78.174 0.743,77.842 0.743,77.431L0.743,0.743C0.743,0.332 0.411,0 0,0" style="fill:white;fill-rule:nonzero;"/>
                </g>
                <rect id="path1982" x="1626.64" y="362.112" width="18.575" height="78.174" style="fill:rgb(244,193,81);fill-rule:nonzero;"/>
                <rect id="path1984" x="1648.48" y="362.112" width="18.575" height="78.174" style="fill:rgb(244,193,81);fill-rule:nonzero;"/>
                <rect id="path1986" x="1670.32" y="362.112" width="18.575" height="78.174" style="fill:rgb(244,193,81);fill-rule:nonzero;"/>
                <rect id="path1988" x="1692.16" y="362.112" width="18.575" height="78.174" style="fill:rgb(244,193,81);fill-rule:nonzero;"/>
                <rect id="path1990" x="1714.01" y="362.112" width="18.575" height="78.174" style="fill:rgb(244,193,81);fill-rule:nonzero;"/>
                <rect id="path1992" x="1735.85" y="362.112" width="18.575" height="78.174" style="fill:rgb(244,193,81);fill-rule:nonzero;"/>
                <g id="g1994" transform="matrix(1,0,0,1,1759.77,432.976)">
                    <path id="path1996" d="M0,0L-138.597,0C-139.014,0 -139.351,0.337 -139.351,0.751C-139.351,1.165 -139.014,1.502 -138.597,1.502L0,1.502C0.414,1.502 0.751,1.165 0.751,0.751C0.751,0.337 0.414,0 0,0" style="fill:rgb(65,64,77);fill-rule:nonzero;"/>
                </g>
                <path id="path1998" d="M1628.56,384.511L1686.97,384.511L1686.97,423.428L1628.56,423.428L1628.56,384.511ZM1687.72,383.006L1627.81,383.006C1627.4,383.006 1627.06,383.346 1627.06,383.76L1627.06,424.179C1627.06,424.596 1627.4,424.933 1627.81,424.933L1687.72,424.933C1688.13,424.933 1688.47,424.596 1688.47,424.179L1688.47,383.76C1688.47,383.346 1688.13,383.006 1687.72,383.006" style="fill:rgb(65,64,77);fill-rule:nonzero;"/>
                <g id="g2000" transform="matrix(1,0,0,1,1732.24,423.429)">
                    <path id="path2002" d="M0,0L-38.945,0C-39.359,0 -39.696,0.337 -39.696,0.751C-39.696,1.168 -39.359,1.505 -38.945,1.505L0,1.505C0.414,1.505 0.754,1.168 0.754,0.751C0.754,0.337 0.414,0 0,0" style="fill:rgb(65,64,77);fill-rule:nonzero;"/>
                </g>
                <g id="g2004" transform="matrix(1,0,0,1,1753.29,404.481)">
                    <path id="path2006" d="M0,0L-59.992,0C-60.406,0 -60.744,0.337 -60.744,0.751C-60.744,1.165 -60.406,1.502 -59.992,1.502L0,1.502C0.414,1.502 0.751,1.165 0.751,0.751C0.751,0.337 0.414,0 0,0" style="fill:rgb(65,64,77);fill-rule:nonzero;"/>
                </g>
                <g id="g2008" transform="matrix(1,0,0,1,1753.29,397.326)">
                    <path id="path2010" d="M0,0L-59.992,0C-60.406,0 -60.744,0.337 -60.744,0.751C-60.744,1.165 -60.406,1.502 -59.992,1.502L0,1.502C0.414,1.502 0.751,1.165 0.751,0.751C0.751,0.337 0.414,0 0,0" style="fill:rgb(65,64,77);fill-rule:nonzero;"/>
                </g>
                <g id="g2012" transform="matrix(1,0,0,1,1753.29,390.166)">
                    <path id="path2014" d="M0,0L-59.992,0C-60.406,0 -60.744,0.337 -60.744,0.754C-60.744,1.168 -60.406,1.505 -59.992,1.505L0,1.505C0.414,1.505 0.751,1.168 0.751,0.754C0.751,0.337 0.414,0 0,0" style="fill:rgb(65,64,77);fill-rule:nonzero;"/>
                </g>
                <g id="g2016" transform="matrix(1,0,0,1,1732.24,383.007)">
                    <path id="path2018" d="M0,0L-38.945,0C-39.359,0 -39.696,0.337 -39.696,0.754C-39.696,1.168 -39.359,1.505 -38.945,1.505L0,1.505C0.414,1.505 0.754,1.168 0.754,0.754C0.754,0.337 0.414,0 0,0" style="fill:rgb(65,64,77);fill-rule:nonzero;"/>
                </g>
                <g id="g2020" transform="matrix(1,0,0,1,1627.81,383.007)">
                    <path id="path2022" d="M0,0C-0.241,0 -0.479,0.119 -0.624,0.332C-0.853,0.675 -0.765,1.142 -0.42,1.375L59.485,41.797C59.834,42.035 60.296,41.936 60.531,41.593C60.761,41.25 60.67,40.782 60.327,40.55L0.42,0.13C0.292,0.043 0.145,0 0,0" style="fill:rgb(65,64,77);fill-rule:nonzero;"/>
                </g>
                <g id="g2024" transform="matrix(1,0,0,1,1687.72,383.007)">
                    <path id="path2026" d="M0,0C-0.145,0 -0.292,0.043 -0.42,0.13L-60.327,40.55C-60.67,40.782 -60.761,41.25 -60.531,41.593C-60.299,41.936 -59.831,42.035 -59.485,41.797L0.42,1.375C0.763,1.142 0.853,0.675 0.624,0.332C0.479,0.119 0.241,0 0,0" style="fill:rgb(65,64,77);fill-rule:nonzero;"/>
                </g>
                <path id="path2028" d="M1628.52,362.863L1752.54,362.863L1752.54,372.01L1628.52,372.01L1628.52,362.863ZM1753.29,361.361L1627.77,361.361C1627.35,361.361 1627.02,361.698 1627.02,362.112L1627.02,372.764C1627.02,373.178 1627.35,373.516 1627.77,373.516L1753.29,373.516C1753.7,373.516 1754.04,373.178 1754.04,372.764L1754.04,362.112C1754.04,361.698 1753.7,361.361 1753.29,361.361" style="fill:rgb(65,64,77);fill-rule:nonzero;"/>
                <g id="g2030" transform="matrix(1,0,0,1,1764.98,357.401)">
                    <path id="path2032" d="M0,0L0,-7.917C0,-9.74 -2.106,-11.2 -4.694,-11.2L-144.357,-11.2C-146.917,-11.2 -149.02,-9.74 -149.02,-7.917L-149.02,0L0,0Z" style="fill:rgb(218,218,218);fill-rule:nonzero;"/>
                </g>
                <g id="g2034" transform="matrix(1,0,0,1,1616.71,356.648)">
                    <path id="path2036" d="M0,0L0,-7.166C0,-8.541 1.791,-9.697 3.909,-9.697L143.575,-9.697C145.709,-9.697 147.518,-8.541 147.518,-7.166L147.518,0L0,0ZM143.575,-11.2L3.909,-11.2C0.924,-11.2 -1.505,-9.391 -1.505,-7.166L-1.505,0.751C-1.505,1.168 -1.168,1.505 -0.751,1.505L148.269,1.505C148.683,1.505 149.02,1.168 149.02,0.751L149.02,-7.166C149.02,-9.431 146.631,-11.2 143.575,-11.2" style="fill:rgb(65,64,77);fill-rule:nonzero;"/>
                </g>
                <g id="g2038" transform="matrix(1,0,0,1,1707.3,338.449)">
                    <path id="path2040" d="M0,0L-6.647,7.756L-26.209,7.756L-32.856,0L0,0Z" style="fill:rgb(218,218,218);fill-rule:nonzero;"/>
                </g>
                <g id="g2042" transform="matrix(1,0,0,1,1676.08,339.202)">
                    <path id="path2044" d="M0,0L29.585,0L24.225,6.25L5.357,6.25L0,0ZM31.221,-1.502L-1.636,-1.502C-1.93,-1.502 -2.197,-1.332 -2.322,-1.066C-2.441,-0.799 -2.398,-0.485 -2.205,-0.261L4.442,7.492C4.584,7.656 4.791,7.753 5.012,7.753L24.574,7.753C24.795,7.753 25.002,7.656 25.143,7.492L31.791,-0.261C31.98,-0.485 32.026,-0.799 31.904,-1.066C31.782,-1.332 31.516,-1.502 31.221,-1.502" style="fill:rgb(65,64,77);fill-rule:nonzero;"/>
                </g>
                <g id="g2046" transform="matrix(1,0,0,1,1622.7,439.535)">
                    <path id="path2048" d="M0,0C-0.428,0 -0.774,-0.349 -0.774,-0.774L-0.774,-75.895C-0.774,-76.326 -0.428,-76.671 0,-76.671L135.541,-76.671C135.972,-76.671 136.318,-76.326 136.318,-75.895L136.318,-0.774C136.318,-0.349 135.972,0 135.541,0L0,0ZM135.541,-78.177L0,-78.177C-1.256,-78.177 -2.279,-77.153 -2.279,-75.895L-2.279,-0.774C-2.279,0.482 -1.256,1.505 0,1.505L135.541,1.505C136.8,1.505 137.823,0.482 137.823,-0.774L137.823,-75.895C137.823,-77.153 136.8,-78.177 135.541,-78.177" style="fill:rgb(65,64,77);fill-rule:nonzero;"/>
                </g>
                <g id="g2050" transform="matrix(1,0,0,1,1693.73,351.798)">
                    <path id="path2052" d="M0,0C0,-1.576 -1.278,-2.854 -2.852,-2.854C-4.428,-2.854 -5.706,-1.576 -5.706,0C-5.706,1.576 -4.428,2.852 -2.852,2.852C-1.278,2.852 0,1.576 0,0" style="fill:white;fill-rule:nonzero;"/>
                </g>
                <g id="g2054" transform="matrix(1,0,0,1,1690.87,353.899)">
                    <path id="path2056" d="M0,0C-1.157,0 -2.1,-0.944 -2.1,-2.1C-2.1,-3.257 -1.157,-4.201 0,-4.201C1.159,-4.201 2.103,-3.257 2.103,-2.1C2.103,-0.944 1.159,0 0,0M0,-5.706C-1.99,-5.706 -3.603,-4.09 -3.603,-2.1C-3.603,-0.113 -1.99,1.502 0,1.502C1.99,1.502 3.606,-0.113 3.606,-2.1C3.606,-4.09 1.99,-5.706 0,-5.706" style="fill:rgb(65,64,77);fill-rule:nonzero;"/>
                </g>
            </g>
        </g>
    </g>
</svg>
