<?xml version="1.0" encoding="UTF-8" standalone="no"?>
<!DOCTYPE svg PUBLIC "-//W3C//DTD SVG 1.1//EN" "http://www.w3.org/Graphics/SVG/1.1/DTD/svg11.dtd">
<svg width="100%" height="100%" viewBox="0 0 47 54" version="1.1" xmlns="http://www.w3.org/2000/svg" xmlns:xlink="http://www.w3.org/1999/xlink" xml:space="preserve" xmlns:serif="http://www.serif.com/" style="fill-rule:evenodd;clip-rule:evenodd;stroke-linejoin:round;stroke-miterlimit:2;">
    <g id="Artboard1" transform="matrix(1,0,0,1,0,-0.727877)">
        <rect x="0" y="0.728" width="46.74" height="53.317" style="fill:none;"/>
        <g transform="matrix(0.352778,0,0,-0.352778,-654.649,164.389)">
            <g id="Capa-1" serif:id="Capa 1">
                <g id="g15432">
                    <g id="g3368">
                    </g>
                    <g id="g3372" transform="matrix(1,0,0,1,1953.82,406.527)">
                        <path id="path3374" d="M0,0L-0.581,0C-1.23,0 -1.763,0.533 -1.763,1.182L-1.763,17.793C-1.763,18.445 -1.23,18.978 -0.581,18.978L0,18.978C0.649,18.978 1.182,18.445 1.182,17.793L1.182,1.182C1.182,0.533 0.649,0 0,0" style="fill:rgb(218,218,218);fill-rule:nonzero;"/>
                    </g>
                    <g id="g3376" transform="matrix(1,0,0,1,1953.24,424.796)">
                        <path id="path3378" d="M0,0C-0.258,0 -0.473,-0.218 -0.473,-0.473L-0.473,-17.087C-0.473,-17.348 -0.261,-17.561 0,-17.561L0.581,-17.561C0.842,-17.561 1.054,-17.348 1.054,-17.087L1.054,-0.473C1.054,-0.218 0.839,0 0.581,0L0,0ZM0.581,-18.978L0,-18.978C-1.043,-18.978 -1.891,-18.13 -1.891,-17.087L-1.891,-0.473C-1.891,0.57 -1.043,1.417 0,1.417L0.581,1.417C1.624,1.417 2.472,0.57 2.472,-0.473L2.472,-17.087C2.472,-18.13 1.624,-18.978 0.581,-18.978" style="fill:rgb(65,64,77);fill-rule:nonzero;"/>
                    </g>
                    <g id="g3380" transform="matrix(1,0,0,1,1890.74,417.451)">
                        <path id="path3382" d="M0,0L-1.054,0C-1.576,0 -2.001,0.425 -2.001,0.944L-2.001,11.188C-2.001,11.71 -1.576,12.135 -1.054,12.135L0,12.135C0.519,12.135 0.944,11.71 0.944,11.188L0.944,0.944C0.944,0.425 0.519,0 0,0" style="fill:rgb(218,218,218);fill-rule:nonzero;"/>
                    </g>
                    <g id="g3384" transform="matrix(1,0,0,1,1889.69,429.019)">
                        <path id="path3386" d="M0,0C-0.21,0 -0.38,-0.17 -0.38,-0.38L-0.38,-10.624C-0.38,-10.828 -0.207,-11.004 0,-11.004L1.054,-11.004C1.261,-11.004 1.431,-10.831 1.431,-10.624L1.431,-0.38C1.431,-0.17 1.261,0 1.054,0L0,0ZM1.054,-12.135L0,-12.135C-0.833,-12.135 -1.514,-11.458 -1.514,-10.624L-1.514,-0.38C-1.514,0.454 -0.833,1.131 0,1.131L1.054,1.131C1.888,1.131 2.565,0.454 2.565,-0.38L2.565,-10.624C2.565,-11.458 1.888,-12.135 1.054,-12.135" style="fill:rgb(65,64,77);fill-rule:nonzero;"/>
                    </g>
                    <g id="g3388" transform="matrix(1,0,0,1,1890.74,402.447)">
                        <path id="path3390" d="M0,0L-1.054,0C-1.576,0 -2.001,0.425 -2.001,0.944L-2.001,11.188C-2.001,11.71 -1.576,12.135 -1.054,12.135L0,12.135C0.519,12.135 0.944,11.71 0.944,11.188L0.944,0.944C0.944,0.425 0.519,0 0,0" style="fill:rgb(218,218,218);fill-rule:nonzero;"/>
                    </g>
                    <g id="g3392" transform="matrix(1,0,0,1,1889.69,414.015)">
                        <path id="path3394" d="M0,0C-0.21,0 -0.38,-0.17 -0.38,-0.38L-0.38,-10.624C-0.38,-10.828 -0.207,-11.004 0,-11.004L1.054,-11.004C1.261,-11.004 1.431,-10.831 1.431,-10.624L1.431,-0.38C1.431,-0.17 1.261,0 1.054,0L0,0ZM1.054,-12.135L0,-12.135C-0.833,-12.135 -1.514,-11.458 -1.514,-10.624L-1.514,-0.38C-1.514,0.454 -0.833,1.131 0,1.131L1.054,1.131C1.888,1.131 2.565,0.454 2.565,-0.38L2.565,-10.624C2.565,-11.458 1.888,-12.135 1.054,-12.135" style="fill:rgb(65,64,77);fill-rule:nonzero;"/>
                    </g>
                    <g id="g3396" transform="matrix(1,0,0,1,1946.79,324.171)">
                        <path id="path3398" d="M0,0L-49.924,0C-53.391,0 -56.203,2.812 -56.203,6.279L-56.203,122.088C-56.203,125.555 -53.391,128.367 -49.924,128.367L0,128.367C3.467,128.367 6.279,125.555 6.279,122.088L6.279,6.279C6.279,2.812 3.467,0 0,0" style="fill:rgb(218,218,218);fill-rule:nonzero;"/>
                    </g>
                    <g id="g3400" transform="matrix(1,0,0,1,1946.8,323.463)">
                        <path id="path3402" d="M0,0L-49.924,0C-53.776,0 -56.911,3.132 -56.911,6.987L-56.911,15.741C-56.911,16.129 -56.594,16.449 -56.203,16.449C-55.811,16.449 -55.494,16.129 -55.494,15.741L-55.494,6.987C-55.494,3.917 -52.997,1.417 -49.924,1.417L0,1.417C3.07,1.417 5.57,3.917 5.57,6.987L5.57,122.797C5.57,125.867 3.07,128.364 0,128.364L-25.98,128.364C-26.371,128.364 -26.688,128.682 -26.688,129.073C-26.688,129.464 -26.371,129.781 -25.98,129.781L0,129.781C3.852,129.781 6.987,126.649 6.987,122.797L6.987,6.987C6.987,3.132 3.852,0 0,0" style="fill:rgb(65,64,77);fill-rule:nonzero;"/>
                    </g>
                    <g id="g3404" transform="matrix(1,0,0,1,1890.59,354.694)">
                        <path id="path3406" d="M0,0C-0.391,0 -0.709,0.317 -0.709,0.709L-0.709,91.565C-0.709,95.417 2.426,98.552 6.279,98.552L13.711,98.552C14.102,98.552 14.42,98.235 14.42,97.843C14.42,97.449 14.102,97.135 13.711,97.135L6.279,97.135C3.206,97.135 0.709,94.635 0.709,91.565L0.709,0.709C0.709,0.317 0.391,0 0,0" style="fill:rgb(65,64,77);fill-rule:nonzero;"/>
                    </g>
                    <g id="g3408" transform="matrix(1,0,0,1,1945.91,327.686)">
                        <path id="path3410" d="M0,0L-48.149,0C-49.884,0 -51.29,1.406 -51.29,3.138L-51.29,118.196C-51.29,119.931 -49.884,121.337 -48.149,121.337L0,121.337C1.735,121.337 3.138,119.931 3.138,118.196L3.138,3.138C3.138,1.406 1.735,0 0,0" style="fill:white;fill-rule:nonzero;"/>
                    </g>
                    <g id="g3412" transform="matrix(1,0,0,1,1897.76,448.313)">
                        <path id="path3414" d="M0,0C-1.341,0 -2.429,-1.091 -2.429,-2.429L-2.429,-117.49C-2.429,-118.828 -1.341,-119.92 0,-119.92L48.149,-119.92C49.487,-119.92 50.579,-118.828 50.579,-117.49L50.579,-2.429C50.579,-1.091 49.487,0 48.149,0L0,0ZM48.149,-121.337L0,-121.337C-2.123,-121.337 -3.847,-119.611 -3.847,-117.49L-3.847,-2.429C-3.847,-0.309 -2.123,1.417 0,1.417L48.149,1.417C50.27,1.417 51.996,-0.309 51.996,-2.429L51.996,-117.49C51.996,-119.611 50.27,-121.337 48.149,-121.337" style="fill:rgb(65,64,77);fill-rule:nonzero;"/>
                    </g>
                    <g id="g3416" transform="matrix(1,0,0,1,1905.01,448.245)">
                        <path id="path3418" d="M0,0L0,-1.902C0,-2.908 0.819,-3.728 1.828,-3.728L32.247,-3.728C33.253,-3.728 34.075,-2.908 34.075,-1.902L34.075,0L0,0ZM32.247,-5.145L1.828,-5.145C0.04,-5.145 -1.417,-3.691 -1.417,-1.902L-1.417,0.709C-1.417,1.1 -1.1,1.417 -0.709,1.417L34.784,1.417C35.175,1.417 35.493,1.1 35.493,0.709L35.493,-1.902C35.493,-3.691 34.036,-5.145 32.247,-5.145" style="fill:rgb(65,64,77);fill-rule:nonzero;"/>
                    </g>
                    <rect id="path3420" x="1894.62" y="400.124" width="54.428" height="37.298" style="fill:rgb(244,193,81);fill-rule:nonzero;"/>
                    <path id="path3422" d="M1895.33,400.833L1948.34,400.833L1948.34,436.714L1895.33,436.714L1895.33,400.833ZM1949.05,399.416L1894.62,399.416C1894.23,399.416 1893.91,399.733 1893.91,400.124L1893.91,437.423C1893.91,437.814 1894.23,438.131 1894.62,438.131L1949.05,438.131C1949.44,438.131 1949.75,437.814 1949.75,437.423L1949.75,400.124C1949.75,399.733 1949.44,399.416 1949.05,399.416" style="fill:rgb(65,64,77);fill-rule:nonzero;"/>
                    <rect id="path3424" x="1894.62" y="340.092" width="54.428" height="26.504" style="fill:rgb(218,218,218);fill-rule:nonzero;"/>
                    <path id="path3426" d="M1895.33,340.801L1948.34,340.801L1948.34,365.888L1895.33,365.888L1895.33,340.801ZM1949.05,339.384L1894.62,339.384C1894.23,339.384 1893.91,339.701 1893.91,340.092L1893.91,366.593C1893.91,366.987 1894.23,367.302 1894.62,367.302L1949.05,367.302C1949.44,367.302 1949.75,366.987 1949.75,366.593L1949.75,340.092C1949.75,339.701 1949.44,339.384 1949.05,339.384" style="fill:rgb(65,64,77);fill-rule:nonzero;"/>
                    <g id="g3428" transform="matrix(1,0,0,1,1935.88,421.798)">
                        <path id="path3430" d="M0,0L-27.652,0C-28.043,0 -28.361,0.317 -28.361,0.709C-28.361,1.1 -28.043,1.417 -27.652,1.417L0,1.417C0.391,1.417 0.709,1.1 0.709,0.709C0.709,0.317 0.391,0 0,0" style="fill:rgb(65,64,77);fill-rule:nonzero;"/>
                    </g>
                    <g id="g3432" transform="matrix(1,0,0,1,1930.85,415.986)">
                        <path id="path3434" d="M0,0L-17.595,0C-17.986,0 -18.303,0.317 -18.303,0.709C-18.303,1.1 -17.986,1.417 -17.595,1.417L0,1.417C0.391,1.417 0.709,1.1 0.709,0.709C0.709,0.317 0.391,0 0,0" style="fill:rgb(65,64,77);fill-rule:nonzero;"/>
                    </g>
                    <g id="g3436" transform="matrix(1,0,0,1,1916.34,358.124)">
                        <path id="path3438" d="M0,0L-11.869,0C-12.263,0 -12.577,0.317 -12.577,0.709C-12.577,1.1 -12.263,1.417 -11.869,1.417L0,1.417C0.391,1.417 0.709,1.1 0.709,0.709C0.709,0.317 0.391,0 0,0" style="fill:rgb(65,64,77);fill-rule:nonzero;"/>
                    </g>
                    <g id="g3440" transform="matrix(1,0,0,1,1916.34,353.221)">
                        <path id="path3442" d="M0,0L-11.869,0C-12.263,0 -12.577,0.317 -12.577,0.709C-12.577,1.1 -12.263,1.417 -11.869,1.417L0,1.417C0.391,1.417 0.709,1.1 0.709,0.709C0.709,0.317 0.391,0 0,0" style="fill:rgb(65,64,77);fill-rule:nonzero;"/>
                    </g>
                    <g id="g3444" transform="matrix(1,0,0,1,1910.08,348.377)">
                        <path id="path3446" d="M0,0L-5.61,0C-6.001,0 -6.318,0.317 -6.318,0.709C-6.318,1.1 -6.001,1.417 -5.61,1.417L0,1.417C0.391,1.417 0.709,1.1 0.709,0.709C0.709,0.317 0.391,0 0,0" style="fill:rgb(65,64,77);fill-rule:nonzero;"/>
                    </g>
                    <g id="g3448" transform="matrix(1,0,0,1,1937.8,358.124)">
                        <path id="path3450" d="M0,0L-11.869,0C-12.263,0 -12.577,0.317 -12.577,0.709C-12.577,1.1 -12.263,1.417 -11.869,1.417L0,1.417C0.391,1.417 0.709,1.1 0.709,0.709C0.709,0.317 0.391,0 0,0" style="fill:rgb(65,64,77);fill-rule:nonzero;"/>
                    </g>
                    <g id="g3452" transform="matrix(1,0,0,1,1937.8,353.221)">
                        <path id="path3454" d="M0,0L-11.869,0C-12.263,0 -12.577,0.317 -12.577,0.709C-12.577,1.1 -12.263,1.417 -11.869,1.417L0,1.417C0.391,1.417 0.709,1.1 0.709,0.709C0.709,0.317 0.391,0 0,0" style="fill:rgb(65,64,77);fill-rule:nonzero;"/>
                    </g>
                    <g id="g3456" transform="matrix(1,0,0,1,1931.53,348.377)">
                        <path id="path3458" d="M0,0L-5.61,0C-6.001,0 -6.318,0.317 -6.318,0.709C-6.318,1.1 -6.001,1.417 -5.61,1.417L0,1.417C0.391,1.417 0.709,1.1 0.709,0.709C0.709,0.317 0.391,0 0,0" style="fill:rgb(65,64,77);fill-rule:nonzero;"/>
                    </g>
                    <g id="g3460" transform="matrix(1,0,0,1,1925.61,373.722)">
                        <path id="path3462" d="M0,0L-9.578,0C-9.969,0 -10.287,0.317 -10.287,0.709C-10.287,1.1 -9.969,1.417 -9.578,1.417L0,1.417C0.391,1.417 0.709,1.1 0.709,0.709C0.709,0.317 0.391,0 0,0" style="fill:rgb(65,64,77);fill-rule:nonzero;"/>
                    </g>
                    <rect id="path3464" x="1913.83" y="378.496" width="13.972" height="13.972" style="fill:rgb(218,218,218);fill-rule:nonzero;"/>
                    <path id="path3466" d="M1914.54,379.205L1927.09,379.205L1927.09,391.759L1914.54,391.759L1914.54,379.205ZM1927.8,377.787L1913.83,377.787C1913.44,377.787 1913.12,378.102 1913.12,378.496L1913.12,392.465C1913.12,392.856 1913.44,393.174 1913.83,393.174L1927.8,393.174C1928.19,393.174 1928.51,392.856 1928.51,392.465L1928.51,378.496C1928.51,378.102 1928.19,377.787 1927.8,377.787" style="fill:rgb(65,64,77);fill-rule:nonzero;"/>
                    <rect id="path3468" x="1899.2" y="327.685" width="12.883" height="6.769" style="fill:rgb(244,193,81);fill-rule:nonzero;"/>
                    <path id="path3470" d="M1899.91,328.394L1911.37,328.394L1911.37,333.748L1899.91,333.748L1899.91,328.394ZM1912.08,326.976L1899.2,326.976C1898.81,326.976 1898.49,327.294 1898.49,327.685L1898.49,334.454C1898.49,334.845 1898.81,335.163 1899.2,335.163L1912.08,335.163C1912.47,335.163 1912.79,334.845 1912.79,334.454L1912.79,327.685C1912.79,327.294 1912.47,326.976 1912.08,326.976" style="fill:rgb(65,64,77);fill-rule:nonzero;"/>
                    <rect id="path3472" x="1916.34" y="327.685" width="12.883" height="6.769" style="fill:rgb(244,193,81);fill-rule:nonzero;"/>
                    <path id="path3474" d="M1917.05,328.394L1928.51,328.394L1928.51,333.748L1917.05,333.748L1917.05,328.394ZM1929.22,326.976L1916.34,326.976C1915.95,326.976 1915.63,327.294 1915.63,327.685L1915.63,334.454C1915.63,334.845 1915.95,335.163 1916.34,335.163L1929.22,335.163C1929.61,335.163 1929.93,334.845 1929.93,334.454L1929.93,327.685C1929.93,327.294 1929.61,326.976 1929.22,326.976" style="fill:rgb(65,64,77);fill-rule:nonzero;"/>
                    <rect id="path3476" x="1933.36" y="327.685" width="12.881" height="6.769" style="fill:rgb(244,193,81);fill-rule:nonzero;"/>
                    <path id="path3478" d="M1934.06,328.394L1945.53,328.394L1945.53,333.748L1934.06,333.748L1934.06,328.394ZM1946.24,326.976L1933.35,326.976C1932.96,326.976 1932.64,327.294 1932.64,327.685L1932.64,334.454C1932.64,334.845 1932.96,335.163 1933.35,335.163L1946.24,335.163C1946.63,335.163 1946.94,334.845 1946.94,334.454L1946.94,327.685C1946.94,327.294 1946.63,326.976 1946.24,326.976" style="fill:rgb(65,64,77);fill-rule:nonzero;"/>
                </g>
            </g>
        </g>
    </g>
</svg>
