
<svg width="100%" height="100%" viewBox="0 0 825 989" version="1.1" xmlns="http://www.w3.org/2000/svg" xmlns:xlink="http://www.w3.org/1999/xlink" xml:space="preserve" xmlns:serif="http://www.serif.com/" style="fill-rule:evenodd;clip-rule:evenodd;stroke-linecap:round;stroke-miterlimit:1.5;">
    <g transform="matrix(1,0,0,1,-4525.66,-296.178)">
        <g id="Artboard2" transform="matrix(0.750276,0,0,0.769368,3598.81,296.178)">
            <rect x="1235.34" y="0" width="1099.13" height="1284.2" style="fill:none;"/>
            <g transform="matrix(1.33284,0,0,1.29977,-609.32,-263.394)">
                <path d="M1492.15,892.113C1492.15,892.113 1476.1,964.379 1513,983.415C1513,983.415 1525.52,989.85 1537.64,988.493C1537.64,988.493 1590.1,1027.66 1610.15,1000.97L1615.69,992.399C1615.69,992.399 1613.28,1022.06 1641.96,1029.74C1641.96,1029.74 1678.77,1041.28 1691.47,1021.12C1691.47,1021.12 1705.72,1046.92 1733.52,1045.41C1733.52,1045.41 1754.02,1049.73 1771.77,1027.16C1771.77,1027.16 1788.65,1009.33 1793.18,992.399L1775.54,947.172L1690.96,913.202L1594.99,888.885L1532.95,886.009L1492.15,892.113Z" style="fill:rgb(206,200,179);stroke:rgb(2,0,0);stroke-width:4.5px;"/>
            </g>
            <g transform="matrix(1.33284,0,0,1.29977,-609.32,-263.394)">
                <path d="M1537.81,987.92C1537.81,987.92 1551.42,935.808 1564.2,920.423" style="fill:none;stroke:rgb(7,6,2);stroke-width:4.5px;"/>
            </g>
            <g transform="matrix(1.33284,0,0,1.29977,-609.32,-263.394)">
                <path d="M1615.17,995.393C1615.17,995.393 1621.92,964.681 1637.4,941.39" style="fill:none;stroke:rgb(7,6,2);stroke-width:4.5px;"/>
            </g>
            <g transform="matrix(1.33284,0,0,1.29977,-609.32,-263.394)">
                <path d="M1690.99,1022.06C1690.99,1022.06 1697.47,991.469 1712.87,970.205" style="fill:none;stroke:rgb(7,6,2);stroke-width:4.5px;"/>
            </g>
            <g transform="matrix(1.33284,0,0,1.29977,-609.32,-263.394)">
                <path d="M1495.38,621.614C1495.38,621.614 1461.15,692.539 1459.91,736.776C1459.86,739.519 1459.67,742.257 1459.36,744.983C1457.38,764.359 1449.97,846.961 1470.44,869.228C1471.42,870.279 1472.33,871.387 1473.18,872.544C1481.62,883.32 1522.88,930.368 1620.58,960.698C1620.58,960.698 1712.51,985.083 1766.1,989.339C1768.29,989.504 1770.46,989.791 1772.62,990.199C1781.86,991.76 1807.44,994.978 1865.37,990.242C1869.2,989.93 1874.44,989.242 1878.28,989.19C1896.2,988.876 1962.81,982.096 2001.4,902.353C2002.68,899.693 2004.02,897.056 2005.4,894.446C2011.02,883.704 2025.88,853.976 2035.91,821.418L2042.06,814.24L2087.12,742.866L1923.34,646.974L1729.78,596.027L1516.21,567.096L1495.38,621.614Z" style="fill:url(#_Linear1);stroke:black;stroke-width:3.5px;"/>
            </g>
            <g transform="matrix(1.33284,0,0,1.29977,-1686.19,-297.34)">
                <path d="M2356.64,595.42L2348.27,630.329L2323.05,642.101L2323.05,664.846L2314.98,677.545" style="fill:none;stroke:rgb(7,6,2);stroke-width:5.5px;"/>
            </g>
            <g transform="matrix(1.33284,0,0,1.29977,-609.32,-263.394)">
                <path d="M1883.63,313.762C1883.63,313.762 2125.56,363.073 2146.03,654.891C2146.03,654.891 2150.44,774.311 2109.66,798.287C2109.66,798.287 2097.6,815.616 2041.35,814.152L2045.11,781.827C2045.11,781.827 1925.13,674.767 1784.57,634.046C1784.57,634.046 1622.13,569.576 1514.51,585.256L1494.78,621.876C1494.78,621.876 1445.85,594.781 1454.19,526.082C1454.19,526.082 1479.45,411.745 1590.98,348.983C1590.98,348.983 1705.68,271.449 1883.63,313.762Z" style="fill:rgb(236,233,221);"/>
                <clipPath id="_clip2">
                    <path d="M1883.63,313.762C1883.63,313.762 2125.56,363.073 2146.03,654.891C2146.03,654.891 2150.44,774.311 2109.66,798.287C2109.66,798.287 2097.6,815.616 2041.35,814.152L2045.11,781.827C2045.11,781.827 1925.13,674.767 1784.57,634.046C1784.57,634.046 1622.13,569.576 1514.51,585.256L1494.78,621.876C1494.78,621.876 1445.85,594.781 1454.19,526.082C1454.19,526.082 1479.45,411.745 1590.98,348.983C1590.98,348.983 1705.68,271.449 1883.63,313.762Z"/>
                </clipPath>
                <g clip-path="url(#_clip2)">
                    <g transform="matrix(1.11562,0,0,1.08195,-204.821,-62.0308)">
                        <path d="M1668.72,413.849C1701.36,411.932 1726.98,439.582 1726.98,471.277C1726.98,502.973 1701.42,528.705 1668.72,528.705C1636.02,528.705 1607.12,502.886 1609.47,471.277C1611.69,441.414 1638.19,415.642 1668.72,413.849Z" style="fill:rgb(210,60,60);"/>
                    </g>
                    <g transform="matrix(0.995673,0,0,1.04031,206.895,61.3567)">
                        <ellipse cx="1668.72" cy="471.277" rx="59.25" ry="57.428" style="fill:rgb(210,60,60);"/>
                    </g>
                    <g transform="matrix(0.994229,-0.0535983,0.0673773,1.24982,409.697,-30.8524)">
                        <path d="M1668.72,413.849C1701.42,413.849 1726.8,439.604 1727.97,471.277C1729.14,502.928 1734.69,538.378 1689.26,540.857C1671.78,541.81 1645.43,531.047 1630.25,515.761C1617.06,502.482 1609.47,486.011 1609.47,471.277C1609.47,439.582 1636.02,413.849 1668.72,413.849Z" style="fill:rgb(210,60,60);"/>
                    </g>
                    <g transform="matrix(0.560007,0,0,0.58511,1130.99,415.607)">
                        <ellipse cx="1668.72" cy="471.277" rx="59.25" ry="57.428" style="fill:rgb(210,60,60);"/>
                    </g>
                    <g transform="matrix(1.41564,0.348702,-0.248812,1.01011,-360.241,-749.664)">
                        <ellipse cx="1668.72" cy="471.277" rx="59.25" ry="57.428" style="fill:rgb(210,60,60);"/>
                    </g>
                    <g transform="matrix(1.17524,0,0,1.04031,-300.931,-214.494)">
                        <path d="M1668.72,413.849C1701.42,413.849 1731.72,439.805 1727.97,471.277C1724.61,499.464 1698.94,521.729 1668.14,526.429C1626.21,532.827 1609.47,502.973 1609.47,471.277C1609.47,439.582 1636.02,413.849 1668.72,413.849Z" style="fill:rgb(210,60,60);"/>
                    </g>
                    <g transform="matrix(0.995673,0,0,1.04031,-226.337,-14.2278)">
                        <path d="M1668.72,413.849C1701.42,413.849 1726.95,439.582 1726.95,471.277C1726.95,502.973 1706.59,533.3 1673.89,533.3C1641.19,533.3 1609.47,502.973 1609.47,471.277C1609.47,439.582 1636.02,413.849 1668.72,413.849Z" style="fill:rgb(210,60,60);"/>
                    </g>
                </g>
                <path d="M1883.63,313.762C1883.63,313.762 2125.56,363.073 2146.03,654.891C2146.03,654.891 2150.44,774.311 2109.66,798.287C2109.66,798.287 2097.6,815.616 2041.35,814.152L2045.11,781.827C2045.11,781.827 1925.13,674.767 1784.57,634.046C1784.57,634.046 1622.13,569.576 1514.51,585.256L1494.78,621.876C1494.78,621.876 1445.85,594.781 1454.19,526.082C1454.19,526.082 1479.45,411.745 1590.98,348.983C1590.98,348.983 1705.68,271.449 1883.63,313.762Z" style="fill:none;stroke:rgb(7,6,2);stroke-width:4.5px;"/>
            </g>
            <g transform="matrix(1.33284,0,0,1.29977,-609.32,-263.394)">
                <path d="M1948.81,761.388L1958,777.592L1960.42,789.377L1989.92,810.744C1989.92,810.744 1988.65,843.745 1985.02,850.091L2014.01,874.859" style="fill:none;stroke:rgb(2,0,0);stroke-width:5.5px;"/>
            </g>
            <g transform="matrix(1.70116,0.149219,-0.131816,1.4291,-1182.16,-641.635)">
                <ellipse cx="1779.2" cy="812.706" rx="83.436" ry="111.799" style="fill:rgb(11,1,1);stroke:rgb(2,0,0);stroke-width:5.43px;"/>
            </g>
            <g transform="matrix(1.00718,0.0883455,-0.118808,1.28808,-249.809,-476.505)">
                <ellipse cx="1779.2" cy="812.706" rx="83.436" ry="111.799" style="stroke:rgb(2,0,0);stroke-width:7.35px;"/>
            </g>
        </g>
    </g>
    <defs>
        <linearGradient id="_Linear1" x1="0" y1="0" x2="1" y2="0" gradientUnits="userSpaceOnUse" gradientTransform="matrix(383.274,393.456,-393.456,383.274,1521.56,585.277)"><stop offset="0" style="stop-color:rgb(214,212,202);stop-opacity:1"/><stop offset="0.46" style="stop-color:rgb(204,199,180);stop-opacity:1"/><stop offset="1" style="stop-color:rgb(178,166,123);stop-opacity:1"/></linearGradient>
    </defs>
</svg>
