<?xml version="1.0" encoding="utf-8"?>
<!-- Generator: Adobe Illustrator 21.0.0, SVG Export Plug-In . SVG Version: 6.00 Build 0)  -->
<svg version="1.1" xmlns="http://www.w3.org/2000/svg" xmlns:xlink="http://www.w3.org/1999/xlink" x="0px" y="0px"
	 viewBox="0 0 1285.7 612.5" style="enable-background:new 0 0 1285.7 612.5;" xml:space="preserve">
<style type="text/css">
	.st0{fill:none;stroke:#000000;stroke-width:2;stroke-miterlimit:10;}
	.st1{fill:none;stroke:#000000;stroke-miterlimit:10;}
</style>
<g id="Layer_3">
	<polyline class="st0" points="476,500 476,611.5 1284.6,611.5 1284.6,1 476,1 476,82.6 	"/>
	<line class="st0" x1="688" y1="324.5" x2="1284.6" y2="324.5"/>
	<line class="st0" x1="476" y1="30.5" x2="1284.6" y2="30.5"/>
	<rect x="1086.1" y="390.6" class="st0" width="90.5" height="130.4"/>
	<polygon class="st1" points="1109.4,461.8 1100.6,470.9 1123.4,492.8 1162.2,444.6 1152.3,436.7 1122.6,474.5 	"/>
	<line class="st0" x1="1094" y1="530.9" x2="1168.7" y2="530.9"/>
	<line class="st0" x1="1094" y1="539.6" x2="1168.7" y2="539.6"/>
	<rect x="985.8" y="390.6" class="st0" width="90.5" height="130.4"/>
	<polygon class="st1" points="1009.1,461.8 1000.3,470.9 1023.1,492.8 1062,444.6 1052.1,436.7 1022.3,474.5 	"/>
	<line class="st0" x1="993.7" y1="530.9" x2="1068.5" y2="530.9"/>
	<line class="st0" x1="993.7" y1="539.6" x2="1068.5" y2="539.6"/>
	<rect x="884.8" y="390.6" class="st0" width="90.5" height="130.4"/>
	<polygon class="st1" points="908.1,461.8 899.3,470.9 922.1,492.8 961,444.6 951.1,436.7 921.3,474.5 	"/>
	<line class="st0" x1="892.7" y1="530.9" x2="967.5" y2="530.9"/>
	<line class="st0" x1="892.7" y1="539.6" x2="967.5" y2="539.6"/>
	<rect x="784.5" y="390.6" class="st0" width="90.5" height="130.4"/>
	<polygon class="st1" points="807.8,461.8 799,470.9 821.8,492.8 860.6,444.6 850.7,436.7 821,474.5 	"/>
	<line class="st0" x1="792.4" y1="530.9" x2="867.1" y2="530.9"/>
	<line class="st0" x1="792.4" y1="539.6" x2="867.1" y2="539.6"/>
	<polyline class="st0" points="682.2,500.5 682.2,521 772.7,521 772.7,390.6 688.1,390.6 	"/>
	<polygon class="st1" points="705.5,461.8 696.6,470.9 719.5,492.8 758.3,444.6 748.4,436.7 718.6,474.5 	"/>
	<line class="st0" x1="690" y1="530.9" x2="764.8" y2="530.9"/>
	<line class="st0" x1="690" y1="539.6" x2="764.8" y2="539.6"/>
	<polyline class="st0" points="582.3,500.5 582.3,521 672.8,521 672.8,500.8 	"/>
	<path class="st1" d="M658.5,444.6"/>
	<path class="st1" d="M619.6,492.8"/>
	<line class="st0" x1="590.2" y1="530.9" x2="665" y2="530.9"/>
	<line class="st0" x1="590.2" y1="539.6" x2="665" y2="539.6"/>
	<line class="st0" x1="558.2" y1="1" x2="558.2" y2="30.5"/>
	<line class="st0" x1="1228.2" y1="15.7" x2="1239.6" y2="15.7"/>
	<line class="st0" x1="1203.2" y1="15.7" x2="1214.6" y2="15.7"/>
	<line class="st0" x1="1178.2" y1="15.7" x2="1189.6" y2="15.7"/>
	<line class="st0" x1="1153.2" y1="15.7" x2="1164.6" y2="15.7"/>
	<line class="st0" x1="1098.2" y1="15.7" x2="1135.6" y2="15.7"/>
	<line class="st0" x1="728.2" y1="15.7" x2="765.6" y2="15.7"/>
	<line class="st0" x1="659.2" y1="15.7" x2="696.6" y2="15.7"/>
	<line class="st0" x1="590.2" y1="15.7" x2="627.6" y2="15.7"/>
	<rect x="1090" y="276.9" class="st0" width="86.6" height="22.3"/>
	<line class="st0" x1="1090" y1="355.2" x2="1176.6" y2="355.2"/>
	<line class="st0" x1="687" y1="293.2" x2="855" y2="293.2"/>
	<path class="st0" d="M526,83.4l19.1-11c10.7-6.2,23.9-6,34.5,0.5l17.2,10.5"/>
	<path class="st0" d="M1176.9,279.9c11.4-8.3,22.1-18.7,32-31.3c82.9-105.6,75.6-196.2,75.6-196.2"/>
	<path class="st0" d="M1176.9,279.9"/>
	<path class="st0" d="M1140.2,299.2"/>
	<path class="st0" d="M687,202.9c0,0,76.7,0.8,197.8,51.7c89.6,37.6,182.2,70.1,255.3,44.7"/>
</g>
<g id="Layer_2">
	<rect x="1" y="83.4" class="st0" width="686" height="416"/>
	<line class="st0" x1="104" y1="83.4" x2="104" y2="499.4"/>
	<rect x="197" y="144.4" class="st0" width="387" height="292"/>
	<line class="st0" x1="207" y1="214.1" x2="573" y2="214.1"/>
	<circle class="st0" cx="217" cy="202.9" r="6"/>
	<line class="st0" x1="440.5" y1="202.9" x2="471" y2="202.9"/>
	<line class="st0" x1="372.5" y1="202.9" x2="411" y2="202.9"/>
	<line class="st0" x1="344.5" y1="202.9" x2="361.5" y2="202.9"/>
	<line class="st0" x1="552.5" y1="202.9" x2="562.5" y2="202.9"/>
	<line class="st0" x1="538.5" y1="202.9" x2="548.5" y2="202.9"/>
	<line class="st0" x1="234.5" y1="202.9" x2="251.5" y2="202.9"/>
	<line class="st0" x1="207" y1="237.4" x2="573" y2="237.4"/>
	<circle class="st0" cx="217" cy="226.2" r="6"/>
	<line class="st0" x1="440.5" y1="226.2" x2="471" y2="226.2"/>
	<line class="st0" x1="372.5" y1="226.2" x2="411" y2="226.2"/>
	<line class="st0" x1="344.5" y1="226.2" x2="361.5" y2="226.2"/>
	<line class="st0" x1="552.5" y1="226.2" x2="562.5" y2="226.2"/>
	<line class="st0" x1="538.5" y1="226.2" x2="548.5" y2="226.2"/>
	<line class="st0" x1="234.5" y1="226.2" x2="251.5" y2="226.2"/>
	<line class="st0" x1="207" y1="259.7" x2="573" y2="259.7"/>
	<circle class="st0" cx="217" cy="248.6" r="6"/>
	<line class="st0" x1="440.5" y1="248.6" x2="471" y2="248.6"/>
	<line class="st0" x1="372.5" y1="248.6" x2="411" y2="248.6"/>
	<line class="st0" x1="344.5" y1="248.6" x2="361.5" y2="248.6"/>
	<line class="st0" x1="552.5" y1="248.6" x2="562.5" y2="248.6"/>
	<line class="st0" x1="538.5" y1="248.6" x2="548.5" y2="248.6"/>
	<line class="st0" x1="234.5" y1="248.6" x2="251.5" y2="248.6"/>
	<line class="st0" x1="207" y1="282.1" x2="573" y2="282.1"/>
	<circle class="st0" cx="217" cy="270.9" r="6"/>
	<line class="st0" x1="440.5" y1="270.9" x2="471" y2="270.9"/>
	<line class="st0" x1="372.5" y1="270.9" x2="411" y2="270.9"/>
	<line class="st0" x1="344.5" y1="270.9" x2="361.5" y2="270.9"/>
	<line class="st0" x1="552.5" y1="270.9" x2="562.5" y2="270.9"/>
	<line class="st0" x1="538.5" y1="270.9" x2="548.5" y2="270.9"/>
	<line class="st0" x1="234.5" y1="270.9" x2="251.5" y2="270.9"/>
	<line class="st0" x1="207" y1="304.4" x2="573" y2="304.4"/>
	<circle class="st0" cx="217" cy="293.2" r="6"/>
	<line class="st0" x1="440.5" y1="293.2" x2="471" y2="293.2"/>
	<line class="st0" x1="372.5" y1="293.2" x2="411" y2="293.2"/>
	<line class="st0" x1="344.5" y1="293.2" x2="361.5" y2="293.2"/>
	<line class="st0" x1="552.5" y1="293.2" x2="562.5" y2="293.2"/>
	<line class="st0" x1="538.5" y1="293.2" x2="548.5" y2="293.2"/>
	<line class="st0" x1="234.5" y1="293.2" x2="251.5" y2="293.2"/>
	<line class="st0" x1="207" y1="327.7" x2="573" y2="327.7"/>
	<circle class="st0" cx="217" cy="316.6" r="6"/>
	<line class="st0" x1="440.5" y1="316.6" x2="471" y2="316.6"/>
	<line class="st0" x1="372.5" y1="316.6" x2="411" y2="316.6"/>
	<line class="st0" x1="344.5" y1="316.6" x2="361.5" y2="316.6"/>
	<line class="st0" x1="552.5" y1="316.6" x2="562.5" y2="316.6"/>
	<line class="st0" x1="538.5" y1="316.6" x2="548.5" y2="316.6"/>
	<line class="st0" x1="234.5" y1="316.6" x2="251.5" y2="316.6"/>
	<line class="st0" x1="207" y1="350.1" x2="573" y2="350.1"/>
	<circle class="st0" cx="217" cy="338.9" r="6"/>
	<line class="st0" x1="440.5" y1="338.9" x2="471" y2="338.9"/>
	<line class="st0" x1="372.5" y1="338.9" x2="411" y2="338.9"/>
	<line class="st0" x1="344.5" y1="338.9" x2="361.5" y2="338.9"/>
	<line class="st0" x1="552.5" y1="338.9" x2="562.5" y2="338.9"/>
	<line class="st0" x1="538.5" y1="338.9" x2="548.5" y2="338.9"/>
	<line class="st0" x1="234.5" y1="338.9" x2="251.5" y2="338.9"/>
	<line class="st0" x1="207" y1="372.4" x2="573" y2="372.4"/>
	<circle class="st0" cx="217" cy="361.2" r="6"/>
	<line class="st0" x1="440.5" y1="361.2" x2="471" y2="361.2"/>
	<line class="st0" x1="372.5" y1="361.2" x2="411" y2="361.2"/>
	<line class="st0" x1="344.5" y1="361.2" x2="361.5" y2="361.2"/>
	<line class="st0" x1="552.5" y1="361.2" x2="562.5" y2="361.2"/>
	<line class="st0" x1="538.5" y1="361.2" x2="548.5" y2="361.2"/>
	<line class="st0" x1="234.5" y1="361.2" x2="251.5" y2="361.2"/>
	<line class="st0" x1="207" y1="394.7" x2="573" y2="394.7"/>
	<circle class="st0" cx="217" cy="383.6" r="6"/>
	<line class="st0" x1="440.5" y1="383.6" x2="471" y2="383.6"/>
	<line class="st0" x1="372.5" y1="383.6" x2="411" y2="383.6"/>
	<line class="st0" x1="344.5" y1="383.6" x2="361.5" y2="383.6"/>
	<line class="st0" x1="552.5" y1="383.6" x2="562.5" y2="383.6"/>
	<line class="st0" x1="538.5" y1="383.6" x2="548.5" y2="383.6"/>
	<line class="st0" x1="341.5" y1="419.6" x2="350.3" y2="419.6"/>
	<line class="st0" x1="328.5" y1="419.6" x2="333.3" y2="419.6"/>
	<line class="st0" x1="313.8" y1="419.6" x2="318.7" y2="419.6"/>
	<line class="st0" x1="299.2" y1="419.6" x2="304" y2="419.6"/>
	<line class="st0" x1="284.5" y1="419.6" x2="289.3" y2="419.6"/>
	<line class="st0" x1="269.8" y1="419.6" x2="274.7" y2="419.6"/>
	<line class="st0" x1="255.2" y1="419.6" x2="260" y2="419.6"/>
	<line class="st0" x1="240.5" y1="419.6" x2="245.3" y2="419.6"/>
	<line class="st0" x1="207.5" y1="419.6" x2="224.5" y2="419.6"/>
	<line class="st0" x1="234.5" y1="383.6" x2="251.5" y2="383.6"/>
	<rect x="11" y="93.9" class="st0" width="57" height="17.5"/>
	<rect x="210" y="154.9" class="st0" width="57" height="17.5"/>
	<rect x="544" y="154.9" class="st0" width="28.5" height="17.5"/>
	<rect x="473" y="154.9" class="st0" width="63" height="17.5"/>
	<line class="st0" x1="11" y1="215.4" x2="57.7" y2="215.4"/>
	<line class="st0" x1="11" y1="295.4" x2="32" y2="295.4"/>
	<line class="st0" x1="11" y1="305.4" x2="25" y2="305.4"/>
	<line class="st0" x1="11" y1="245.4" x2="32" y2="245.4"/>
	<line class="st0" x1="11" y1="255.4" x2="25" y2="255.4"/>
	<line class="st0" x1="11" y1="235.4" x2="25" y2="235.4"/>
	<line class="st0" x1="11" y1="225.4" x2="33" y2="225.4"/>
	<line class="st0" x1="11" y1="265.4" x2="44.3" y2="265.4"/>
	<line class="st0" x1="11" y1="205.4" x2="44.3" y2="205.4"/>
	<line class="st0" x1="11" y1="141.4" x2="34" y2="141.4"/>
	<line class="st0" x1="11" y1="122.4" x2="23" y2="122.4"/>
</g>
</svg>
