
<svg width="100%" height="100%" viewBox="0 0 784 797" version="1.1" xmlns="http://www.w3.org/2000/svg" xmlns:xlink="http://www.w3.org/1999/xlink" xml:space="preserve" xmlns:serif="http://www.serif.com/" style="fill-rule:evenodd;clip-rule:evenodd;stroke-linecap:round;stroke-linejoin:round;stroke-miterlimit:1.5;">
    <g transform="matrix(1,0,0,1,-4471.26,-452.067)">
        <g id="Artboard2" transform="matrix(0.713172,0,0,0.620447,3590.25,452.067)">
            <rect x="1235.34" y="0" width="1099.13" height="1284.2" style="fill:none;"/>
            <g transform="matrix(1.40219,0,0,1.61174,-3432.64,-588.542)">
                <path d="M3713.05,851.392C3713.05,851.392 3714.42,961.016 3726.31,958.638C3726.31,958.638 3728.39,979.385 3801.98,977.324C3801.98,977.324 3858.02,975.462 3878.32,980.694C3878.32,980.694 3847.64,986.474 3857.6,1026.16L3847.41,1032.43C3847.41,1032.43 3825.95,993.636 3806.61,993.636C3806.61,993.636 3776.04,996.853 3779.71,1047.65C3779.71,1047.65 3775.55,1047.62 3762.08,1047.52C3762.08,1047.52 3738.45,998.781 3718.98,1000.05C3718.98,1000.05 3694.45,1007.49 3683.72,1038.72C3683.72,1038.72 3678.47,1004.68 3656.91,999.603C3656.91,999.603 3637.51,1008.1 3632.12,1038.86C3632.12,1038.86 3603.07,1023.15 3594.54,1007.45C3594.54,1007.45 3580.07,974.049 3589.04,914.051C3589.04,914.051 3595.39,865.694 3564.64,862.523C3564.64,862.523 3536.9,860.313 3539.53,908.261C3539.53,908.261 3536.6,1006.65 3554.36,1033.13C3554.36,1033.13 3593.08,1090.94 3655.96,1105.87C3655.96,1105.87 3719.7,1130.58 3805.44,1108.17C3805.44,1108.17 3910.87,1079.76 3942.54,1008.57C3942.54,1008.57 3961.96,959.931 3893.46,942.645C3893.46,942.645 3784.45,938.339 3772.55,936.278C3772.55,936.278 3760.45,936.134 3754.67,897.971L3756.33,846.997L3713.05,851.392Z" style="fill:rgb(239,231,192);"/>
                <path d="M3848.8,1020.4C3844.22,1013.42 3837,1003.52 3828.91,996.387C3821.84,990.159 3814,986.136 3806.61,986.136C3806.35,986.136 3806.08,986.149 3805.82,986.177C3805.82,986.177 3795.8,987.005 3786.49,996.28C3779.17,1003.57 3771.77,1016.57 3771.9,1040.09C3771.9,1040.09 3766.67,1040.05 3766.67,1040.05C3762.55,1032.29 3752.98,1015.45 3742.23,1004.49C3734.61,996.72 3726.12,992.069 3718.49,992.566C3717.92,992.603 3717.36,992.706 3716.81,992.872C3716.81,992.872 3698.78,998.081 3685.39,1018.33C3684.46,1016.19 3683.4,1014 3682.19,1011.87C3677.08,1002.83 3669.36,994.826 3658.63,992.302C3657.05,991.93 3655.39,992.082 3653.9,992.733C3653.9,992.733 3635.49,1000.27 3627.18,1027.29C3618.75,1022 3606.38,1013.18 3601.31,1004.2C3600.03,1000.97 3588.34,969.443 3596.46,915.16C3596.46,915.116 3596.47,915.072 3596.47,915.029C3596.47,915.029 3598.95,895.815 3593.64,879.684C3589.53,867.235 3581.13,856.683 3565.4,855.062C3565.35,855.056 3565.29,855.051 3565.23,855.046C3565.23,855.046 3555.51,854.057 3546.33,861.622C3538.7,867.901 3530.58,880.809 3532.02,908.362C3531.91,912.617 3530.84,958.759 3535.89,995.503C3538.32,1013.15 3542.35,1028.69 3548.13,1037.3C3548.32,1037.6 3588.56,1097.34 3653.77,1113.05C3660.02,1115.35 3723.47,1137.35 3807.34,1115.42C3807.36,1115.42 3807.38,1115.41 3807.39,1115.41C3807.39,1115.41 3846.39,1104.92 3884.61,1080.72C3910.6,1064.26 3936.11,1041.46 3949.39,1011.62C3949.43,1011.53 3949.47,1011.44 3949.5,1011.35C3949.5,1011.35 3957.82,990.74 3946.99,969.864C3940.18,956.742 3925.7,943.044 3895.3,935.373C3894.79,935.245 3894.28,935.171 3893.76,935.15C3893.76,935.15 3785.74,930.937 3773.85,928.891C3773.44,928.56 3771.52,926.928 3769.97,924.22C3767.14,919.265 3764.28,911.043 3762.18,897.523C3762.18,897.521 3763.82,847.242 3763.82,847.242C3763.89,845.079 3763.03,842.992 3761.45,841.515C3759.86,840.039 3757.72,839.317 3755.57,839.536L3712.3,843.931C3708.43,844.323 3705.51,847.602 3705.56,851.486C3705.56,851.486 3706.53,922.84 3713.07,950.146C3714.66,956.757 3716.98,961.285 3719.08,963.307C3719.53,963.735 3719.98,964.112 3720.44,964.439C3722.16,967.559 3725.73,971.674 3733.16,975.442C3743.42,980.646 3763.34,985.909 3802.19,984.821C3802.2,984.82 3802.21,984.82 3802.23,984.82C3802.23,984.82 3833.27,983.709 3856.97,985.351C3856.04,986.442 3855.15,987.626 3854.31,988.912C3849.8,995.824 3846.63,1005.85 3848.8,1020.4ZM3720.68,858.157L3748.55,855.326C3748.55,855.326 3747.17,897.727 3747.17,897.727C3747.16,898.184 3747.18,898.642 3747.25,899.094C3753.6,940.995 3769.1,943.653 3771.99,943.779C3786.27,945.789 3882.63,949.714 3892.37,950.107C3916.28,956.284 3928.26,966.344 3933.67,976.77C3940.87,990.65 3936.1,1004.35 3935.61,1005.68C3923.53,1032.72 3900.15,1053.13 3876.59,1068.05C3841.07,1090.54 3804.86,1100.55 3803.53,1100.91C3720.43,1122.63 3658.67,1098.88 3658.67,1098.88C3658.35,1098.75 3658.03,1098.65 3657.69,1098.57C3597.57,1084.3 3560.59,1028.95 3560.59,1028.95C3560.59,1028.95 3560.59,1028.95 3560.59,1028.95C3555.7,1021.67 3552.81,1008.38 3550.75,993.458C3545.6,955.999 3547.02,908.484 3547.02,908.484C3547.03,908.272 3547.03,908.061 3547.02,907.85C3546.11,891.305 3548.92,881.589 3553.19,875.998C3557.68,870.119 3563.48,869.997 3564,869.999C3572.8,870.97 3577.09,877.381 3579.39,884.377C3583.5,896.868 3581.78,911.644 3581.61,912.977C3572.27,975.606 3587.66,1010.43 3587.66,1010.43C3587.74,1010.64 3587.84,1010.84 3587.95,1011.03C3597.22,1028.09 3628.55,1045.46 3628.55,1045.46C3630.67,1046.6 3633.22,1046.66 3635.39,1045.61C3637.56,1044.56 3639.09,1042.53 3639.51,1040.15C3643.05,1019.96 3653.34,1010.85 3657.81,1007.76C3662.9,1009.93 3666.46,1014.53 3669.14,1019.26C3674.62,1028.96 3676.31,1039.86 3676.31,1039.86C3676.83,1043.27 3679.62,1045.88 3683.05,1046.19C3686.49,1046.5 3689.69,1044.42 3690.81,1041.16C3699.03,1017.25 3716.27,1009.15 3720.3,1007.54C3722.35,1007.72 3724.38,1008.98 3726.49,1010.53C3730.02,1013.14 3733.47,1016.85 3736.71,1020.9C3747.22,1034.04 3755.34,1050.79 3755.34,1050.79C3756.58,1053.36 3759.18,1055 3762.03,1055.02C3775.49,1055.12 3779.65,1055.15 3779.65,1055.15C3781.74,1055.17 3783.75,1054.31 3785.18,1052.78C3786.61,1051.26 3787.34,1049.2 3787.19,1047.11C3785.89,1029.17 3789.1,1017.89 3793.82,1010.88C3798.95,1003.25 3805.62,1001.46 3807.1,1001.15C3809.48,1001.29 3811.85,1002.45 3814.22,1003.97C3817.57,1006.14 3820.82,1009.14 3823.83,1012.39C3833.58,1022.91 3840.85,1036.06 3840.85,1036.06C3841.84,1037.85 3843.52,1039.16 3845.51,1039.68C3847.49,1040.2 3849.6,1039.89 3851.34,1038.82L3861.53,1032.55C3864.32,1030.83 3865.67,1027.51 3864.88,1024.33C3861.61,1011.32 3863.22,1002.71 3866.87,997.112C3871.73,989.665 3879.7,988.064 3879.7,988.064C3883.16,987.414 3885.7,984.453 3885.81,980.942C3885.93,977.43 3883.59,974.309 3880.19,973.431C3859.33,968.053 3801.73,969.828 3801.73,969.828C3767.02,970.8 3749.12,966.719 3739.94,962.065C3735.78,959.956 3733.61,957.006 3733.61,957.006C3733.61,957.006 3733.75,957.705 3733.75,957.705C3733.75,957.705 3726.31,966.138 3726.31,966.138C3722.46,966.138 3719.23,963.214 3718.85,959.377C3718.47,955.539 3721.06,952.039 3724.84,951.283C3725.78,951.095 3726.7,951.148 3727.59,951.425C3728.23,951.624 3729.7,952.722 3729.7,952.722C3729.7,952.722 3726.77,943.48 3725.63,935.462C3722.17,911.21 3721.02,873.512 3720.68,858.157L3720.68,858.157ZM3773.83,928.937C3773.58,928.895 3772.92,928.787 3772.87,928.785C3772.75,928.779 3772.67,928.779 3772.67,928.779C3772.67,928.779 3772.55,943.778 3772.55,943.778L3773.83,928.937Z" style="fill:rgb(88,81,33);"/>
            </g>
            <g transform="matrix(1.40219,0,0,1.61174,-3432.64,-588.542)">
                <path d="M3722.66,423.631C3722.66,423.631 3874.06,416.908 3942.24,439.115C3942.24,439.115 4011.28,451.325 4015.63,584.182C4015.63,584.182 4039.5,826.96 3943.16,830.19L3925.11,831.729C3925.11,831.729 3916.93,875.27 3901.92,883.402C3901.92,883.402 3883.85,892.126 3855.08,834.264C3855.08,834.264 3844.02,874.685 3825.57,888.446C3825.57,888.446 3800.74,880.086 3786.04,837.919C3786.04,837.919 3772.94,876.029 3761.29,892.219C3758.48,896.082 3753.32,897.417 3748.99,895.407C3739.19,890.746 3721.83,877.871 3713.35,843.306C3713.35,843.306 3698.72,888.402 3688.7,894.97C3688.7,894.97 3664.52,906.192 3651.07,873.664C3651.07,873.664 3635.24,833.4 3609.23,832.418C3609.23,832.418 3525.92,834.074 3517.56,833.922C3517.56,833.922 3468.74,834.12 3439.17,783.772C3439.17,783.772 3419.88,737.447 3413.04,636.749C3413.04,636.749 3414.2,530.83 3426.36,505.918C3426.36,505.918 3441.95,443.785 3557.59,437.31C3559.08,437.227 3560.57,437.124 3562.06,437C3581.58,435.38 3722.66,423.631 3722.66,423.631Z" style="fill:rgb(239,231,192);stroke:rgb(88,81,33);stroke-width:16px;"/>
            </g>
            <g transform="matrix(1.40219,0,0,1.61174,-3432.64,-588.542)">
                <path d="M3715.78,642.101C3715.78,642.101 3721.67,613.83 3686.54,595.342C3686.54,595.342 3659.48,580.405 3622.55,582.746C3608.35,583.669 3594.68,588.465 3583.02,596.612C3582.97,596.593 3582.94,596.611 3582.92,596.63C3558.77,613.53 3543.29,640.211 3540.62,669.564C3538.95,687.808 3538.34,713.97 3545.25,733.404C3545.25,733.404 3563.36,784.648 3595.39,791.03C3627.43,797.411 3663,796.949 3680.92,784.742C3680.92,784.742 3715.55,763.936 3718.86,740.298C3718.86,740.298 3720.22,727.871 3713.93,726.76C3713.93,726.76 3710.84,727.141 3708.53,737.326C3707,744.047 3704.18,750.406 3700.23,756.05C3697.98,759.264 3695.51,761.776 3693.2,761.863C3693.2,761.863 3685.64,761.504 3691.49,748.084C3691.49,748.084 3707.61,721.491 3699.09,714.853C3699.09,714.853 3695.97,725.56 3693.18,726.538C3693.18,726.538 3690.05,728.2 3687.87,721.328C3687.06,719.117 3686.87,716.728 3687.31,714.417C3688.33,708.648 3691.36,692.896 3692.11,685.539C3692.18,684.096 3692.17,682.65 3692.08,681.208C3691.84,676.2 3690.54,658.49 3689.11,653.932C3688.76,652.93 3688.64,651.861 3688.75,650.805C3688.93,648.808 3689.83,646.381 3693.15,647.716C3694.9,648.412 3696.18,649.941 3696.56,651.786C3697.46,655.993 3699.57,664.618 3702.16,665.003C3702.16,665.003 3708.48,665.274 3701.72,644.552C3700.85,641.844 3699.7,639.232 3698.3,636.754C3696.5,633.554 3693.75,628.918 3691.54,626.115C3690.23,624.822 3689.37,623.139 3689.1,621.319C3688.57,618.146 3689.25,613.91 3697.66,617.137C3708.92,621.46 3700.86,618.367 3699.01,617.655C3698.95,617.632 3698.88,617.647 3698.84,617.693C3698.79,617.739 3698.78,617.808 3698.81,617.866C3700.16,620.867 3710.04,642.304 3715.78,642.101Z" style="fill:rgb(88,81,33);stroke:rgb(88,81,33);stroke-width:3.5px;"/>
            </g>
            <g transform="matrix(1.16109,0,0,1.61174,-2157.33,-585.729)">
                <path d="M3715.78,642.101C3715.78,642.101 3721.67,613.83 3686.54,595.342C3686.54,595.342 3674.25,588.077 3655.12,583.734C3624.59,576.753 3591.93,584.933 3571.2,604.757C3569.31,606.603 3567.39,608.563 3565.5,610.652C3551.97,625.609 3543.64,643.347 3541.43,661.944C3539.3,679.814 3537.3,711.057 3545.25,733.404C3545.25,733.404 3563.36,784.648 3595.39,791.03C3627.43,797.411 3663,796.949 3680.92,784.742C3680.92,784.742 3715.55,763.936 3718.86,740.298C3718.86,740.298 3720.22,727.871 3713.93,726.76C3713.93,726.76 3711.01,727.118 3708.73,736.449C3707.12,742.589 3703.76,748.325 3698.96,753.187C3696.72,755.583 3694.25,757.369 3692.06,757.451C3692.06,757.451 3686.54,756.26 3691.49,748.084C3691.49,748.084 3706.57,719.64 3698.04,713.002C3698.04,713.002 3696.06,723.591 3693.27,724.568C3693.27,724.568 3684.99,726.815 3686.67,717.097C3686.73,716.739 3686.78,716.379 3686.8,716.017C3687.07,712.318 3688.61,690.453 3688.58,683.734C3688.57,683.37 3688.56,683.006 3688.57,682.641C3688.56,682.623 3688.79,655.871 3688.7,653.013C3688.7,652.928 3688.69,652.843 3688.68,652.758C3688.59,651.469 3688.45,645.775 3693.21,647.742C3694.96,648.457 3696.11,649.899 3696.21,651.513C3696.47,655.063 3697.26,662.126 3699.82,662.507C3699.82,662.507 3708.31,665.008 3701.58,644.171C3700.81,641.755 3699.78,639.401 3698.51,637.135C3696.67,633.844 3693.68,628.757 3691.34,625.876C3690.2,624.774 3689.42,623.448 3689.07,622.024C3688.29,619.081 3688.43,614.523 3697.66,617.137C3706.72,619.702 3700.22,616.859 3701.28,618.162C3701.28,618.162 3701.28,618.162 3701.28,618.163C3704.84,622.554 3707.41,627.445 3708.86,632.597C3710.14,637.133 3712.34,642.222 3715.78,642.101Z" style="fill:rgb(88,81,33);stroke:rgb(88,81,33);stroke-width:3.81px;"/>
            </g>
            <g transform="matrix(1.40219,0,0,1.61174,-3432.64,-588.542)">
                <path d="M3814.3,705.057C3814.66,705.004 3814.96,704.758 3815.08,704.416C3815.82,702.266 3817.78,691.959 3798.91,683.682C3798.91,683.682 3778.28,681.725 3764.88,724.443C3764.88,724.443 3747.71,764.654 3750.88,781.358C3750.88,781.358 3751.9,808.303 3776.32,795.09C3776.32,795.09 3784.53,789.453 3788,777.687C3788,777.687 3795.95,800.216 3816.02,796.835C3816.02,796.835 3837.43,793.559 3831.63,767.687C3831.43,766.812 3830.66,766.189 3829.76,766.188C3828.65,766.177 3827.47,767.223 3827.98,772.11C3827.98,772.11 3828.51,777.951 3825.62,779.097C3825.62,779.097 3823.78,779.791 3822.91,777.929C3822.88,777.855 3822.86,777.775 3822.85,777.693C3822.78,776.639 3822.14,764.872 3820.14,758.652C3819.85,757.861 3819.61,757.056 3819.41,756.239C3818.3,752.064 3813.13,731.063 3811.1,725.219C3811.1,725.219 3804.88,705.816 3803.63,702.651C3803.6,702.581 3803.57,702.511 3803.54,702.442C3803.11,701.432 3801.3,696.776 3805.2,697.378C3806.41,697.564 3807.48,698.245 3808.15,699.255C3809.51,701.26 3812.33,705.046 3814.3,705.057Z" style="fill:rgb(88,81,33);stroke:rgb(88,81,33);stroke-width:0.85px;"/>
            </g>
            <g transform="matrix(1.34208,-0.466817,0.406122,1.54266,-3492.61,1242.98)">
                <path d="M3817.95,708.786C3819.53,708.786 3821.33,710.598 3820.8,712.683C3820.16,715.209 3819.1,716.829 3817.95,716.58C3816.41,716.247 3815.87,714.549 3815.87,712.398C3815.87,710.247 3816.38,708.786 3817.95,708.786Z" style="fill:rgb(88,81,33);stroke:rgb(88,81,33);stroke-width:0.85px;"/>
            </g>
            <g transform="matrix(1.40219,0,0,1.61174,-3432.64,-588.542)">
                <path d="M3718.18,646.916C3717.37,646.709 3716.51,646.944 3715.92,647.534C3715.33,648.124 3715.1,648.982 3715.31,649.789C3716.31,653.336 3718.02,659.107 3717.89,660.149C3717.89,660.15 3717.89,660.151 3717.89,660.152C3717.89,660.153 3717.89,660.153 3717.89,660.152C3717.92,659.844 3722.31,660.976 3723.34,657.653C3724.35,654.392 3723.31,647.963 3718.18,646.916Z" style="fill:rgb(88,81,33);stroke:rgb(88,81,33);stroke-width:0.85px;"/>
            </g>
            <g transform="matrix(1.40219,0,0,1.61174,-3432.64,-588.542)">
                <path d="M3646.41,850.924C3646.09,851.683 3635.88,809.57 3598.16,806.096C3598.16,806.096 3589.56,807.193 3598.87,812.919C3598.87,812.919 3610.17,819.067 3607.21,824.985L3620.69,840.536C3620.69,840.536 3646.74,850.164 3646.41,850.924Z" style="fill:rgb(88,81,33);stroke:rgb(88,81,33);stroke-width:0.85px;"/>
            </g>
            <g transform="matrix(1.36386,0.374257,-0.325597,1.56769,-3031.69,-1897.49)">
                <ellipse cx="3583.18" cy="810.988" rx="6.252" ry="4.626" style="fill:rgb(88,81,33);stroke:rgb(88,81,33);stroke-width:0.85px;"/>
            </g>
            <g transform="matrix(1.40219,0,0,1.61174,-3432.64,-588.542)">
                <path d="M3713.13,779.077C3713.13,778.887 3713.03,778.71 3712.87,778.613C3712.7,778.517 3712.5,778.516 3712.34,778.611C3709.84,780.026 3702.42,784.333 3699.25,787.062C3698.58,787.732 3697.83,788.318 3697.02,788.808C3694.14,790.687 3685.51,796.223 3686.67,798.736C3686.67,798.736 3687,800.626 3690.26,800.626C3693.66,800.626 3696.95,799.4 3699.53,797.172C3703.48,793.712 3712.43,785.259 3713.13,779.077Z" style="fill:rgb(88,81,33);stroke:rgb(88,81,33);stroke-width:0.85px;"/>
            </g>
            <g transform="matrix(1.17235,0,0,1.62439,-2201.63,-607.653)">
                <path d="M3713.33,779.089C3713.3,778.9 3713.14,778.741 3712.92,778.675C3712.71,778.608 3712.47,778.645 3712.29,778.771C3710.31,780.191 3705.44,783.749 3702.43,786.435C3701.32,787.704 3699.92,788.775 3698.3,789.583C3694.4,791.635 3685.59,796.382 3686.67,798.736C3686.67,798.736 3687.01,800.699 3692.06,799.531C3694.28,799.1 3696.38,798.299 3698.21,797.176C3701.52,795.189 3714.05,786.8 3713.33,779.089Z" style="fill:rgb(88,81,33);stroke:rgb(88,81,33);stroke-width:0.92px;"/>
            </g>
            <g transform="matrix(1.40219,0,0,1.61174,-3432.64,-588.542)">
                <path d="M3671.79,802.31C3671.79,802.31 3675.58,801.468 3676.66,800.882C3676.66,800.882 3684.41,799.322 3677.28,805.758C3677.28,805.758 3672.07,808.848 3668.67,807.413C3668.67,807.413 3665.06,806.468 3666.52,803.993L3671.79,802.31Z" style="fill:rgb(88,81,33);stroke:rgb(88,81,33);stroke-width:0.85px;"/>
            </g>
            <g transform="matrix(1.36481,-0.369662,0.3216,1.56878,-3166.94,795.378)">
                <path d="M3671.54,802.389C3671.78,802.314 3672.01,802.247 3672.26,802.189C3672.99,802.03 3674.45,801.676 3675.54,801.321C3676.45,800.937 3677.42,800.742 3678.4,800.75C3679.74,800.727 3681.12,801.149 3679.68,803.196C3678.72,804.63 3677.37,805.765 3675.79,806.476C3674.08,807.284 3671.17,808.289 3668.94,807.515C3668.84,807.481 3668.75,807.451 3668.65,807.424C3668.47,807.357 3666.34,806.738 3666.18,805.292C3666.08,804.689 3666.43,804.101 3667.01,803.915C3668.08,803.496 3670.72,802.652 3671.54,802.389Z" style="fill:rgb(88,81,33);stroke:rgb(88,81,33);stroke-width:0.85px;"/>
            </g>
            <g transform="matrix(1.40219,0,0,1.50703,-3432.64,-483.518)">
                <path d="M3926.05,987.078C3926.05,987.078 3915.68,970.625 3904.74,970.625C3904.74,970.625 3889.26,977.029 3903.46,1003.02C3903.46,1003.02 3894.12,979.718 3877.28,978.981" style="fill:none;stroke:rgb(88,81,33);stroke-width:16.53px;"/>
            </g>
        </g>
    </g>
</svg>
