<svg width="48" height="48" viewBox="0 0 48 48" fill="none" xmlns="http://www.w3.org/2000/svg"><path d="M24 0.180054C19.2889 0.180054 14.6835 1.57707 10.7663 4.19445C6.84914 6.81182 3.79607 10.532 1.99319 14.8845C0.190314 19.2371 -0.281402 24.0265 0.637698 28.6471C1.5568 33.2677 3.82543 37.512 7.15672 40.8433C10.488 44.1746 14.7323 46.4433 19.353 47.3624C23.9736 48.2815 28.763 47.8097 33.1155 46.0069C37.4681 44.204 41.1882 41.1509 43.8056 37.2337C46.423 33.3166 47.82 28.7112 47.82 24.0001C47.8137 17.6845 45.302 11.6295 40.8363 7.16379C36.3705 2.69805 30.3155 0.186407 24 0.180054V0.180054ZM24 44.8201C19.8822 44.8201 15.8569 43.599 12.433 41.3113C9.0092 39.0235 6.34065 35.7719 4.76483 31.9675C3.18902 28.1632 2.77671 23.977 3.58005 19.9383C4.3834 15.8996 6.36631 12.1898 9.27804 9.27809C12.1898 6.36636 15.8995 4.38345 19.9382 3.5801C23.9769 2.77676 28.1631 3.18907 31.9675 4.76488C35.7718 6.3407 39.0235 9.00925 41.3112 12.4331C43.5989 15.8569 44.82 19.8822 44.82 24.0001C44.8137 29.5199 42.6181 34.8119 38.715 38.715C34.8118 42.6181 29.5199 44.8137 24 44.8201V44.8201Z" fill="black"></path><path d="M33.876 14.9281C32.124 15.2041 30.372 15.3961 28.608 15.5281C29.2919 14.5905 29.6616 13.4606 29.664 12.3001C29.6989 11.5479 29.581 10.7965 29.3172 10.0912C29.0534 9.38598 28.6494 8.74155 28.1295 8.19691C27.6096 7.65228 26.9846 7.21875 26.2923 6.92255C25.6001 6.62635 24.8549 6.47363 24.102 6.47363C23.349 6.47363 22.6039 6.62635 21.9116 6.92255C21.2194 7.21875 20.5944 7.65228 20.0745 8.19691C19.5546 8.74155 19.1505 9.38598 18.8867 10.0912C18.623 10.7965 18.505 11.5479 18.54 12.3001C18.5423 13.4606 18.912 14.5905 19.596 15.5281C17.832 15.3961 16.068 15.2041 14.316 14.9281C13.595 14.7879 12.8484 14.8717 12.1764 15.1681C11.5044 15.4645 10.9391 15.9594 10.5564 16.5863C10.1737 17.2132 9.99197 17.9421 10.0355 18.6753C10.079 19.4085 10.3458 20.1108 10.8 20.688C11.0814 21.0806 11.4388 21.4125 11.8512 21.664C12.2635 21.9155 12.7222 22.0815 13.2 22.152C15.204 22.476 17.28 22.7041 19.392 22.8481V24.7081L13.2 34.4401C12.94 34.8458 12.7624 35.2989 12.6775 35.7733C12.5925 36.2477 12.6019 36.7341 12.7049 37.2049C12.9131 38.1557 13.4905 38.9849 14.31 39.51C15.1295 40.0352 16.1241 40.2132 17.0749 40.0051C17.5457 39.902 17.9915 39.7072 18.387 39.4318C18.7826 39.1564 19.12 38.8058 19.38 38.4L24 31.056L28.644 38.4C28.9018 38.809 29.2381 39.1628 29.6334 39.4411C30.0288 39.7194 30.4753 39.9165 30.9473 40.0213C31.4193 40.126 31.9073 40.1361 32.3832 40.0512C32.8592 39.9662 33.3135 39.7878 33.7201 39.5263C34.1267 39.2647 34.4775 38.9252 34.7521 38.5274C35.0267 38.1295 35.2198 37.6812 35.3202 37.2083C35.4207 36.7353 35.4264 36.2472 35.3371 35.7721C35.2478 35.297 35.0652 34.8442 34.8 34.4401L28.8 24.996V22.8001C30.912 22.6561 32.988 22.4281 34.992 22.1041C35.9468 21.9449 36.7992 21.413 37.3618 20.6254C37.9244 19.8377 38.1511 18.8588 37.992 17.9041C37.8328 16.9493 37.3009 16.0968 36.5133 15.5342C35.7256 14.9716 34.7468 14.7449 33.792 14.9041L33.876 14.9281ZM24.096 9.73205C24.6067 9.71773 25.1101 9.85607 25.5418 10.1294C25.9734 10.4027 26.3138 10.7986 26.5192 11.2664C26.7247 11.7342 26.7859 12.2527 26.6951 12.7554C26.6043 13.2582 26.3656 13.7225 26.0095 14.0889C25.6533 14.4553 25.196 14.7071 24.696 14.8122C24.196 14.9172 23.676 14.8707 23.2026 14.6787C22.7291 14.4866 22.3238 14.1577 22.0383 13.734C21.7528 13.3102 21.6002 12.811 21.6 12.3001C21.5997 11.6313 21.8604 10.9888 22.3265 10.5092C22.7926 10.0296 23.4275 9.7508 24.096 9.73205V9.73205ZM34.56 19.2001C32.1431 19.5792 29.7076 19.8276 27.264 19.9441C26.8788 19.9626 26.5155 20.1287 26.2496 20.4081C25.9836 20.6874 25.8355 21.0584 25.836 21.4441V25.4401C25.8379 25.7254 25.9211 26.0043 26.076 26.2441L32.292 36C32.3386 36.0733 32.3703 36.155 32.3852 36.2405C32.4002 36.326 32.3981 36.4137 32.3792 36.4984C32.3602 36.5831 32.3248 36.6632 32.2748 36.7342C32.2248 36.8052 32.1613 36.8656 32.088 36.912C31.9392 37.003 31.7609 37.0326 31.5907 36.9945C31.4205 36.9565 31.2718 36.8537 31.176 36.708L25.272 27.396C25.1435 27.1913 24.9671 27.0209 24.758 26.8997C24.549 26.7784 24.3135 26.7099 24.072 26.7C23.8186 26.7002 23.5694 26.764 23.3471 26.8856C23.1248 27.0072 22.9367 27.1828 22.8 27.396L16.8 36.756C16.759 36.8395 16.7008 36.9133 16.6293 36.9727C16.5577 37.0321 16.4744 37.0757 16.3849 37.1007C16.2953 37.1257 16.2015 37.1314 16.1096 37.1176C16.0176 37.1038 15.9296 37.0707 15.8514 37.0205C15.7731 36.9703 15.7063 36.9041 15.6554 36.8264C15.6045 36.7486 15.5706 36.6609 15.5559 36.5691C15.5412 36.4773 15.5461 36.3834 15.5703 36.2936C15.5944 36.2038 15.6372 36.1201 15.696 36.0481L22.092 25.956C22.2487 25.7172 22.3321 25.4377 22.332 25.152V21.4321C22.3324 21.0464 22.1843 20.6754 21.9184 20.3961C21.6525 20.1167 21.2892 19.9506 20.904 19.9321C18.4726 19.8189 16.049 19.5745 13.644 19.2001C13.5577 19.188 13.4749 19.1583 13.4006 19.1129C13.3263 19.0675 13.2621 19.0073 13.212 18.9361C13.1316 18.8318 13.0849 18.7056 13.078 18.5742C13.0711 18.4428 13.1044 18.3124 13.1734 18.2003C13.2425 18.0883 13.344 17.9999 13.4645 17.947C13.585 17.8941 13.7188 17.8791 13.848 17.9041C20.6373 18.9841 27.5547 18.9841 34.344 17.9041C34.5167 17.8791 34.6925 17.9211 34.8352 18.0215C34.978 18.1219 35.077 18.273 35.112 18.4441C35.1363 18.6171 35.0923 18.7928 34.9893 18.934C34.8862 19.0751 34.7322 19.1705 34.56 19.2001V19.2001Z" fill="black"></path></svg>