<svg class="c-feature-tile--icon" width="48" height="48" viewBox="0 0 32 32" fill="none" xmlns="http://www.w3.org/2000/svg"><path d="M28.0001 0.600107H4.00014C3.55259 0.599055 3.10922 0.686165 2.69534 0.856462C2.28146 1.02676 1.90517 1.27691 1.58797 1.59263C1.27076 1.90835 1.01885 2.28345 0.846613 2.69653C0.674375 3.10961 0.585185 3.55256 0.584135 4.00011V28.0001C0.57989 28.4506 0.665231 28.8975 0.835198 29.3148C1.00517 29.732 1.25637 30.1114 1.57421 30.4307C1.89205 30.75 2.27019 31.003 2.68665 31.1749C3.10311 31.3468 3.54959 31.4342 4.00014 31.4321H28.0001C28.4507 31.4342 28.8972 31.3468 29.3136 31.1749C29.7301 31.003 30.1082 30.75 30.4261 30.4307C30.7439 30.1114 30.9951 29.732 31.1651 29.3148C31.335 28.8975 31.4204 28.4506 31.4161 28.0001V4.00011C31.4151 3.55256 31.3259 3.10961 31.1537 2.69653C30.9814 2.28345 30.7295 1.90835 30.4123 1.59263C30.0951 1.27691 29.7188 1.02676 29.3049 0.856462C28.891 0.686165 28.4477 0.599055 28.0001 0.600107ZM29.4161 28.0001C29.4204 28.188 29.3869 28.3748 29.3174 28.5494C29.248 28.7241 29.1441 28.8829 29.012 29.0166C28.8799 29.1502 28.7222 29.2559 28.5483 29.3273C28.3745 29.3986 28.188 29.4343 28.0001 29.4321H4.00014C3.81222 29.4343 3.62578 29.3986 3.45194 29.3273C3.2781 29.2559 3.12041 29.1502 2.98827 29.0166C2.85613 28.8829 2.75225 28.7241 2.68282 28.5494C2.61339 28.3748 2.57983 28.188 2.58414 28.0001V4.00011C2.58412 3.8149 2.62086 3.63154 2.69221 3.46063C2.76357 3.28972 2.86812 3.13467 2.99983 3.00446C3.13153 2.87424 3.28776 2.77146 3.45946 2.70205C3.63117 2.63264 3.81494 2.59799 4.00014 2.60011H28.0001C28.1853 2.59799 28.3691 2.63264 28.5408 2.70205C28.7125 2.77146 28.8687 2.87424 29.0004 3.00446C29.1321 3.13467 29.2367 3.28972 29.3081 3.46063C29.3794 3.63154 29.4161 3.8149 29.4161 4.00011V28.0001Z" fill="#1D1C1D"></path><path d="M23.256 11.064H20.8L21.144 8.74395C21.1629 8.61368 21.1559 8.48096 21.1236 8.35337C21.0912 8.22578 21.034 8.10581 20.9552 8.00032C20.7962 7.78728 20.5591 7.64614 20.296 7.60795C20.0329 7.56976 19.7654 7.63765 19.5523 7.79668C19.3393 7.95571 19.1981 8.19286 19.16 8.45595L18.776 11.064H14.984L15.32 8.74395C15.3471 8.61065 15.3467 8.47323 15.3189 8.34008C15.291 8.20693 15.2363 8.08086 15.1581 7.96958C15.0799 7.8583 14.9798 7.76415 14.8639 7.69289C14.748 7.62162 14.6188 7.57475 14.4842 7.55513C14.3496 7.53551 14.2124 7.54356 14.0811 7.57879C13.9497 7.61401 13.8269 7.67567 13.7201 7.76C13.6134 7.84432 13.525 7.94953 13.4603 8.06919C13.3956 8.18886 13.356 8.32046 13.344 8.45595L12.96 11.064H9.69595C9.43074 11.064 9.17638 11.1693 8.98885 11.3568C8.80131 11.5444 8.69595 11.7987 8.69595 12.064C8.69595 12.3292 8.80131 12.5835 8.98885 12.7711C9.17638 12.9586 9.43074 13.064 9.69595 13.064H12.672L11.952 17.992H8.75195C8.48674 17.992 8.23238 18.0973 8.04485 18.2848C7.85731 18.4724 7.75195 18.7267 7.75195 18.992C7.75195 19.2572 7.85731 19.5115 8.04485 19.6991C8.23238 19.8866 8.48674 19.992 8.75195 19.992H11.664L11.2 23.288C11.1601 23.5441 11.2212 23.8057 11.3704 24.0176C11.5197 24.2295 11.7454 24.3752 12 24.424H12.152C12.3913 24.4226 12.6222 24.3355 12.8027 24.1784C12.9833 24.0214 13.1015 23.8048 13.136 23.568L13.68 20H17.456L16.976 23.296C16.937 23.5579 17.0035 23.8247 17.161 24.0377C17.3185 24.2507 17.554 24.3925 17.816 24.432H17.968C18.2073 24.4306 18.4382 24.3435 18.6187 24.1864C18.7993 24.0294 18.9175 23.8128 18.952 23.576L19.48 20H22.304C22.5692 20 22.8235 19.8946 23.0111 19.7071C23.1986 19.5195 23.304 19.2652 23.304 19C23.304 18.7347 23.1986 18.4804 23.0111 18.2928C22.8235 18.1053 22.5692 18 22.304 18H19.768L20.496 13.072H23.256C23.5212 13.072 23.7755 12.9666 23.9631 12.7791C24.1506 12.5915 24.256 12.3372 24.256 12.072C24.256 11.8067 24.1506 11.5524 23.9631 11.3648C23.7755 11.1773 23.5212 11.072 23.256 11.072V11.064ZM17.752 17.992H13.968L14.688 13.064H18.472L17.752 17.992Z" fill="#1D1C1D"></path></svg>