<svg class="c-feature-tile--icon" width="48" height="48" viewBox="0 0 32 32" fill="none" xmlns="http://www.w3.org/2000/svg"><path d="M30.2561 7.19994C29.9124 7.00426 29.5236 6.90136 29.1281 6.90136C28.7326 6.90136 28.3438 7.00426 28.0001 7.19994L23.2001 9.99994V9.39194C23.2001 8.49021 22.8419 7.6254 22.2043 6.98778C21.5666 6.35016 20.7018 5.99194 19.8001 5.99194H4.0001C3.09836 5.99194 2.23356 6.35016 1.59593 6.98778C0.958311 7.6254 0.600098 8.49021 0.600098 9.39194V23.5599C0.600098 24.0064 0.688041 24.4486 0.858907 24.8611C1.02977 25.2736 1.28022 25.6484 1.59593 25.9641C1.91165 26.2798 2.28647 26.5303 2.69897 26.7011C3.11148 26.872 3.5536 26.9599 4.0001 26.9599H19.7841C20.2319 26.9621 20.6758 26.8757 21.0901 26.7057C21.5045 26.5358 21.8812 26.2857 22.1986 25.9698C22.516 25.6539 22.7679 25.2783 22.9398 24.8648C23.1116 24.4512 23.2001 24.0078 23.2001 23.5599V22.9519L28.0001 25.7199C28.3479 25.9206 28.7426 26.0255 29.1441 26.0239C29.5432 26.0264 29.9356 25.9214 30.2801 25.7199C30.6293 25.5221 30.9194 25.2347 31.1205 24.8874C31.3216 24.54 31.4264 24.1453 31.4241 23.7439V9.20794C31.4298 8.79878 31.3242 8.39577 31.1184 8.04206C30.9127 7.68834 30.6146 7.39725 30.2561 7.19994V7.19994ZM21.1841 11.1199V23.5599C21.1841 23.9312 21.0366 24.2873 20.774 24.5499C20.5115 24.8124 20.1554 24.9599 19.7841 24.9599H4.0001C3.62879 24.9599 3.2727 24.8124 3.01015 24.5499C2.7476 24.2873 2.6001 23.9312 2.6001 23.5599V9.39194C2.60221 9.02203 2.75064 8.66799 3.01297 8.40716C3.27529 8.14634 3.63018 7.99994 4.0001 7.99994H19.7841C20.1554 7.99994 20.5115 8.14744 20.774 8.40999C21.0366 8.67254 21.1841 9.02864 21.1841 9.39994V11.1199ZM29.4001 23.7439C29.401 23.7934 29.388 23.8422 29.3625 23.8846C29.3371 23.927 29.3002 23.9615 29.2561 23.9839C29.2149 24.0121 29.1661 24.0272 29.1161 24.0272C29.0661 24.0272 29.0173 24.0121 28.9761 23.9839L23.2001 20.6399V12.3119L28.9921 8.96794C29.0333 8.93974 29.0821 8.92465 29.1321 8.92465C29.1821 8.92465 29.2309 8.93974 29.2721 8.96794C29.3162 8.99043 29.3531 9.02486 29.3785 9.06729C29.404 9.10973 29.417 9.15846 29.4161 9.20794L29.4001 23.7439Z" fill="#1D1C1D"></path><path d="M17.0721 16.168C16.828 16.083 16.5603 16.0975 16.3268 16.2082C16.0932 16.319 15.9127 16.5172 15.8241 16.76C15.5304 17.5588 14.9997 18.2487 14.303 18.7375C13.6064 19.2263 12.777 19.4905 11.926 19.4949C11.075 19.4992 10.2429 19.2435 9.54129 18.7618C8.83966 18.2802 8.30193 17.5957 8.00009 16.8C7.89828 16.5754 7.71585 16.3972 7.48892 16.3007C7.26198 16.2042 7.00709 16.1965 6.7747 16.279C6.54231 16.3615 6.34936 16.5282 6.23406 16.7462C6.11876 16.9642 6.08951 17.2175 6.15209 17.456C6.57877 18.6461 7.36265 19.6754 8.39653 20.403C9.43041 21.1307 10.6638 21.5212 11.9281 21.5212C13.1924 21.5212 14.4258 21.1307 15.4597 20.403C16.4935 19.6754 17.2774 18.6461 17.7041 17.456C17.7528 17.3303 17.7749 17.1959 17.769 17.0613C17.7632 16.9266 17.7295 16.7946 17.6702 16.6736C17.6108 16.5526 17.527 16.4452 17.4241 16.3582C17.3211 16.2712 17.2013 16.2064 17.0721 16.168V16.168Z" fill="#1D1C1D"></path><path d="M9.89603 15.592C10.1283 15.5935 10.3558 15.5263 10.5498 15.3987C10.7439 15.2712 10.8959 15.089 10.9866 14.8752C11.0773 14.6614 11.1026 14.4255 11.0594 14.1973C11.0162 13.9691 10.9064 13.7588 10.7439 13.5929C10.5813 13.427 10.3733 13.313 10.1461 13.2652C9.91879 13.2174 9.68245 13.2379 9.46684 13.3242C9.25124 13.4105 9.06601 13.5588 8.93453 13.7502C8.80305 13.9417 8.73119 14.1677 8.72803 14.4C8.72484 14.5554 8.75269 14.7098 8.80995 14.8543C8.86722 14.9988 8.95275 15.1304 9.06153 15.2414C9.17031 15.3524 9.30015 15.4406 9.44344 15.5008C9.58674 15.561 9.74061 15.592 9.89603 15.592V15.592Z" fill="#1D1C1D"></path><path d="M13.7039 15.592C13.9361 15.5935 14.1636 15.5263 14.3577 15.3987C14.5518 15.2712 14.7037 15.089 14.7944 14.8752C14.8851 14.6614 14.9105 14.4255 14.8673 14.1973C14.8241 13.9691 14.7143 13.7588 14.5518 13.5929C14.3892 13.427 14.1812 13.313 13.9539 13.2652C13.7267 13.2174 13.4903 13.2379 13.2747 13.3242C13.0591 13.4105 12.8739 13.5588 12.7424 13.7502C12.6109 13.9417 12.5391 14.1677 12.5359 14.4C12.5327 14.5554 12.5605 14.7098 12.6178 14.8543C12.6751 14.9988 12.7606 15.1304 12.8694 15.2414C12.9782 15.3524 13.108 15.4406 13.2513 15.5008C13.3946 15.561 13.5485 15.592 13.7039 15.592V15.592Z" fill="#1D1C1D"></path></svg>