<svg class="c-feature-tile--icon" width="48" height="48" viewBox="0 0 32 32" fill="none" xmlns="http://www.w3.org/2000/svg"><path d="M25.5998 3.064H16.7438L17.5038 2.264C17.6736 2.07301 17.7638 1.82426 17.756 1.56884C17.7481 1.31341 17.6428 1.07069 17.4615 0.890503C17.2803 0.710316 17.037 0.606341 16.7816 0.599925C16.5261 0.593509 16.2779 0.685139 16.0878 0.856001L13.6878 3.256C13.5947 3.34889 13.5208 3.45924 13.4704 3.58073C13.42 3.70222 13.394 3.83247 13.394 3.964C13.394 4.09554 13.42 4.22578 13.4704 4.34727C13.5208 4.46876 13.5947 4.57911 13.6878 4.672L16.0878 7.072C16.181 7.16601 16.2919 7.24057 16.4142 7.29139C16.5364 7.3422 16.6675 7.36824 16.7998 7.368C16.9311 7.36898 17.0612 7.34325 17.1823 7.29236C17.3033 7.24148 17.4127 7.1665 17.5038 7.072C17.5967 6.97979 17.6704 6.87012 17.7207 6.74929C17.771 6.62847 17.7969 6.49888 17.7969 6.368C17.7969 6.23712 17.771 6.10754 17.7207 5.98671C17.6704 5.86589 17.5967 5.75621 17.5038 5.664L16.8718 5.032H25.5998C25.9705 5.0341 26.3254 5.18228 26.5875 5.44437C26.8496 5.70647 26.9977 6.06135 26.9998 6.432V25.6C26.9977 25.9707 26.8496 26.3255 26.5875 26.5876C26.3254 26.8497 25.9705 26.9979 25.5998 27H21.5998C21.3346 27 21.0803 27.1054 20.8927 27.2929C20.7052 27.4804 20.5998 27.7348 20.5998 28C20.5998 28.2652 20.7052 28.5196 20.8927 28.7071C21.0803 28.8946 21.3346 29 21.5998 29H25.5998C26.5009 28.9979 27.3645 28.639 28.0017 28.0018C28.6388 27.3647 28.9977 26.5011 28.9998 25.6V6.464C28.9977 5.56291 28.6388 4.69934 28.0017 4.06217C27.3645 3.42501 26.5009 3.06611 25.5998 3.064Z" fill="#1D1C1D"></path><path d="M15.888 24.896C15.698 24.7251 15.4497 24.6335 15.1943 24.6399C14.9388 24.6463 14.6955 24.7503 14.5143 24.9305C14.3331 25.1107 14.2277 25.3534 14.2199 25.6088C14.212 25.8642 14.3022 26.113 14.472 26.304L15.168 27H6.4C6.02934 26.9979 5.67447 26.8497 5.41237 26.5876C5.15027 26.3255 5.0021 25.9706 5 25.6V6.46397C5.0021 6.09331 5.15027 5.73843 5.41237 5.47634C5.67447 5.21424 6.02934 5.06607 6.4 5.06397H10.4C10.6652 5.06397 10.9196 4.95861 11.1071 4.77107C11.2946 4.58354 11.4 4.32918 11.4 4.06396C11.4 3.79875 11.2946 3.54439 11.1071 3.35686C10.9196 3.16932 10.6652 3.06396 10.4 3.06396H6.4C5.49891 3.06608 4.63534 3.42497 3.99817 4.06214C3.361 4.6993 3.00211 5.56288 3 6.46397V25.6C3.00211 26.5011 3.361 27.3646 3.99817 28.0018C4.63534 28.639 5.49891 28.9979 6.4 29H15.2L14.504 29.696C14.3658 29.8353 14.2717 30.0122 14.2334 30.2046C14.195 30.3971 14.2142 30.5965 14.2883 30.7782C14.3625 30.9598 14.4885 31.1157 14.6506 31.2262C14.8127 31.3368 15.0038 31.3972 15.2 31.4C15.3313 31.4009 15.4614 31.3752 15.5824 31.3243C15.7035 31.2734 15.8129 31.1985 15.904 31.104L18.304 28.704C18.3971 28.6111 18.471 28.5007 18.5214 28.3792C18.5718 28.2577 18.5978 28.1275 18.5978 27.996C18.5978 27.8644 18.5718 27.7342 18.5214 27.6127C18.471 27.4912 18.3971 27.3809 18.304 27.288L15.888 24.896Z" fill="#1D1C1D"></path><path d="M14.8561 9.35189C14.6066 9.31927 14.3541 9.38427 14.1514 9.53334C13.9487 9.6824 13.8113 9.904 13.7681 10.1519L13.5041 11.9999H11.1521C10.8975 11.9999 10.6533 12.101 10.4733 12.2811C10.2932 12.4611 10.1921 12.7053 10.1921 12.9599C10.1921 13.2145 10.2932 13.4587 10.4733 13.6387C10.6533 13.8187 10.8975 13.9199 11.1521 13.9199H13.2241L12.7201 17.3279H10.4001C10.2672 17.3157 10.1332 17.3314 10.0067 17.3739C9.88022 17.4164 9.76398 17.4848 9.66541 17.5748C9.56684 17.6647 9.4881 17.7743 9.43423 17.8964C9.38036 18.0185 9.35254 18.1504 9.35254 18.2839C9.35254 18.4173 9.38036 18.5493 9.43423 18.6714C9.4881 18.7935 9.56684 18.903 9.66541 18.993C9.76398 19.0829 9.88022 19.1514 10.0067 19.1939C10.1332 19.2364 10.2672 19.2521 10.4001 19.2399H12.4161L12.1041 21.5999C12.0694 21.8497 12.1336 22.1032 12.283 22.3064C12.4324 22.5096 12.6553 22.6465 12.9041 22.6879H13.0481C13.2745 22.6873 13.4934 22.6067 13.6662 22.4603C13.8389 22.3139 13.9543 22.1111 13.9921 21.8879L14.4001 19.2399H16.9281L16.5601 21.5999C16.5254 21.8497 16.5896 22.1032 16.739 22.3064C16.8884 22.5096 17.1113 22.6465 17.3601 22.6879H17.5041C17.7305 22.6873 17.9494 22.6067 18.1222 22.4603C18.2949 22.3139 18.4103 22.1111 18.4481 21.8879L18.8321 19.2879H20.8401C21.0785 19.2661 21.3002 19.1559 21.4616 18.979C21.6231 18.8021 21.7125 18.5713 21.7125 18.3319C21.7125 18.0924 21.6231 17.8616 21.4616 17.6848C21.3002 17.5079 21.0785 17.3977 20.8401 17.3759H19.1201L19.6161 13.9679H21.6001C21.8611 13.9679 22.1113 13.8642 22.2959 13.6797C22.4804 13.4951 22.5841 13.2449 22.5841 12.9839C22.5841 12.7229 22.4804 12.4726 22.2959 12.2881C22.1113 12.1036 21.8611 11.9999 21.6001 11.9999H19.9201L20.1521 10.4399C20.1868 10.1901 20.1226 9.93655 19.9732 9.73334C19.8237 9.53013 19.6009 9.39327 19.3521 9.35189C19.1032 9.31735 18.8507 9.38179 18.6487 9.53136C18.4468 9.68094 18.3116 9.90372 18.2721 10.1519L17.9601 11.9999H15.4401L15.6641 10.4399C15.7007 10.1885 15.6363 9.9329 15.4848 9.72897C15.3334 9.52504 15.1073 9.38945 14.8561 9.35189V9.35189ZM17.6801 13.9199L17.1841 17.3279H14.6561L15.2001 13.9199H17.6801Z" fill="#1D1C1D"></path></svg>