<?xml version="1.0" encoding="UTF-8" standalone="no"?>
<!DOCTYPE svg PUBLIC "-//W3C//DTD SVG 1.1//EN" "http://www.w3.org/Graphics/SVG/1.1/DTD/svg11.dtd">
<svg width="100%" height="100%" viewBox="0 0 31 41" version="1.1" xmlns="http://www.w3.org/2000/svg" xmlns:xlink="http://www.w3.org/1999/xlink" xml:space="preserve" xmlns:serif="http://www.serif.com/" style="fill-rule:evenodd;clip-rule:evenodd;stroke-linejoin:round;stroke-miterlimit:2;">
    <g transform="matrix(1,0,0,1,-5.05204,-0.622184)">
        <g transform="matrix(1,0,0,1,-282.591,-183.056)">
            <g id="g14931" transform="matrix(0.308117,-6.47756e-33,-6.47756e-33,-0.308117,-144.066,323.757)">
                <g id="g1840" transform="matrix(1,0,0,1,1500.26,422.973)">
                    <path id="path1842" d="M0,0C0.088,0 0.162,0.071 0.162,0.162L0.162,7.157C0.162,7.245 0.088,7.319 0,7.319L-0.522,7.319L-0.522,15.973C-0.522,19.959 -3.767,23.202 -7.747,23.202L-9.771,23.202C-9.768,23.227 -9.746,23.244 -9.746,23.27L-9.746,24.154C-9.746,24.576 -10.086,24.917 -10.505,24.917L-20.463,24.917C-20.886,24.917 -21.226,24.576 -21.226,24.154L-21.226,23.27C-21.226,23.244 -21.2,23.227 -21.197,23.202L-84.688,23.202C-88.671,23.202 -91.913,19.959 -91.913,15.973L-91.913,-91.573C-91.913,-95.559 -88.671,-98.802 -84.688,-98.802L-7.747,-98.802C-3.767,-98.802 -0.522,-95.559 -0.522,-91.573L-0.522,-10.199L-0.031,-10.199C0.074,-10.199 0.162,-10.114 0.162,-10.009L0.162,-3.073C0.162,-2.968 0.074,-2.883 -0.031,-2.883L-0.522,-2.883L-0.522,0L0,0Z" style="fill:rgb(218,218,218);fill-rule:nonzero;"/>
                </g>
                <g id="g1844" transform="matrix(1,0,0,1,1488.05,332.039)">
                    <path id="path1846" d="M0,0L-83.205,0C-84.844,0 -86.17,1.327 -86.17,2.965L-86.17,116.782C-86.17,118.417 -84.844,119.747 -83.205,119.747L0,119.747C1.638,119.747 2.965,118.417 2.965,116.782L2.965,2.965C2.965,1.327 1.638,0 0,0" style="fill:rgb(218,218,218);fill-rule:nonzero;"/>
                </g>
                <g id="g1848" transform="matrix(1,0,0,1,1466.79,331.286)">
                    <path id="path1850" d="M0,0L-58.819,0C-62.597,0 -65.673,3.076 -65.673,6.851L-65.673,114.398C-65.673,118.176 -62.597,121.252 -58.819,121.252L-48.464,121.252C-48.05,121.252 -47.713,120.915 -47.713,120.498C-47.713,120.084 -48.05,119.747 -48.464,119.747L-58.819,119.747C-61.77,119.747 -64.168,117.349 -64.168,114.398L-64.168,6.851C-64.168,3.903 -61.77,1.502 -58.819,1.502L0,1.502C0.414,1.502 0.754,1.165 0.754,0.751C0.754,0.337 0.414,0 0,0" style="fill:rgb(65,64,77);fill-rule:nonzero;"/>
                </g>
                <g id="g1852" transform="matrix(1,0,0,1,1484.91,331.286)">
                    <path id="path1854" d="M0,0L-6.642,0C-7.055,0 -7.393,0.337 -7.393,0.751C-7.393,1.165 -7.055,1.502 -6.642,1.502L0,1.502C2.951,1.502 5.349,3.903 5.349,6.851L5.349,114.398C5.349,117.349 2.951,119.747 0,119.747L-49.127,119.747C-49.544,119.747 -49.881,120.084 -49.881,120.498C-49.881,120.915 -49.544,121.252 -49.127,121.252L0,121.252C3.779,121.252 6.854,118.176 6.854,114.398L6.854,6.851C6.854,3.076 3.779,0 0,0" style="fill:rgb(65,64,77);fill-rule:nonzero;"/>
                </g>
                <g id="g1856" transform="matrix(1,0,0,1,1485.72,336.927)">
                    <path id="path1858" d="M0,0L-78.026,0C-78.401,0 -78.704,0.303 -78.704,0.68L-78.704,109.29C-78.704,109.664 -78.401,109.967 -78.026,109.967L0,109.967C0.374,109.967 0.677,109.664 0.677,109.29L0.677,0.68C0.677,0.303 0.374,0 0,0" style="fill:white;fill-rule:nonzero;"/>
                </g>
                <g id="g1860" transform="matrix(1,0,0,1,1408.41,446.143)">
                    <path id="path1862" d="M0,0C-0.354,0 -0.643,-0.289 -0.643,-0.643L-0.643,-107.819C-0.643,-108.176 -0.354,-108.462 0,-108.462L76.592,-108.462C76.946,-108.462 77.238,-108.176 77.238,-107.819L77.238,-0.643C77.238,-0.289 76.946,0 76.592,0L0,0ZM76.592,-109.967L0,-109.967C-1.185,-109.967 -2.149,-109.003 -2.149,-107.819L-2.149,-0.643C-2.149,0.541 -1.185,1.505 0,1.505L76.592,1.505C77.777,1.505 78.741,0.541 78.741,-0.643L78.741,-107.819C78.741,-109.003 77.777,-109.967 76.592,-109.967" style="fill:rgb(65,64,77);fill-rule:nonzero;"/>
                </g>
                <g id="g1864" transform="matrix(1,0,0,1,1471.81,454.628)">
                    <path id="path1866" d="M0,0L10.74,0C10.945,0 11.109,-0.164 11.109,-0.369L11.109,-2.035C11.109,-2.242 10.945,-2.407 10.74,-2.407L0,-2.407C-0.204,-2.407 -0.371,-2.242 -0.371,-2.035L-0.371,-0.369C-0.371,-0.164 -0.204,0 0,0" style="fill:rgb(65,64,77);fill-rule:nonzero;"/>
                </g>
                <g id="g1868" transform="matrix(1,0,0,1,1492.82,436.951)">
                    <path id="path1870" d="M0,0L0,-8.059C0,-8.101 -0.034,-8.138 -0.077,-8.138L-1.375,-8.138C-1.417,-8.138 -1.454,-8.101 -1.454,-8.059L-1.454,0C-1.454,0.043 -1.417,0.077 -1.375,0.077L-0.077,0.077C-0.034,0.077 0,0.043 0,0" style="fill:rgb(65,64,77);fill-rule:nonzero;"/>
                </g>
                <g id="g1872" transform="matrix(1,0,0,1,1492.82,427.684)">
                    <path id="path1874" d="M0,0L0,-8.082C0,-8.133 -0.043,-8.172 -0.094,-8.172L-1.361,-8.172C-1.412,-8.172 -1.454,-8.133 -1.454,-8.082L-1.454,0C-1.454,0.051 -1.412,0.094 -1.361,0.094L-0.094,0.094C-0.043,0.094 0,0.051 0,0" style="fill:rgb(65,64,77);fill-rule:nonzero;"/>
                </g>
                <path id="path1876" d="M1407.77,349.685L1485.65,349.685L1485.65,371.381L1407.77,371.381L1407.77,349.685ZM1486.4,348.179L1407.02,348.179C1406.6,348.179 1406.27,348.517 1406.27,348.931L1406.27,372.132C1406.27,372.546 1406.6,372.883 1407.02,372.883L1486.4,372.883C1486.82,372.883 1487.15,372.546 1487.15,372.132L1487.15,348.931C1487.15,348.517 1486.82,348.179 1486.4,348.179" style="fill:rgb(65,64,77);fill-rule:nonzero;"/>
                <rect id="path1878" x="1418.33" y="387.454" width="13.346" height="13.346" style="fill:rgb(218,218,218);fill-rule:nonzero;"/>
                <path id="path1880" d="M1419.08,388.208L1430.92,388.208L1430.92,400.045L1419.08,400.045L1419.08,388.208ZM1431.68,386.702L1418.33,386.702C1417.91,386.702 1417.58,387.04 1417.58,387.454L1417.58,400.796C1417.58,401.213 1417.91,401.55 1418.33,401.55L1431.68,401.55C1432.09,401.55 1432.43,401.213 1432.43,400.796L1432.43,387.454C1432.43,387.04 1432.09,386.702 1431.68,386.702" style="fill:rgb(65,64,77);fill-rule:nonzero;"/>
                <rect id="path1882" x="1439.77" y="387.454" width="13.346" height="13.346" style="fill:rgb(218,218,218);fill-rule:nonzero;"/>
                <path id="path1884" d="M1440.52,388.208L1452.36,388.208L1452.36,400.045L1440.52,400.045L1440.52,388.208ZM1453.12,386.702L1439.77,386.702C1439.35,386.702 1439.02,387.04 1439.02,387.454L1439.02,400.796C1439.02,401.213 1439.35,401.55 1439.77,401.55L1453.12,401.55C1453.53,401.55 1453.87,401.213 1453.87,400.796L1453.87,387.454C1453.87,387.04 1453.53,386.702 1453.12,386.702" style="fill:rgb(65,64,77);fill-rule:nonzero;"/>
                <rect id="path1886" x="1461.21" y="387.454" width="13.346" height="13.346" style="fill:rgb(218,218,218);fill-rule:nonzero;"/>
                <path id="path1888" d="M1461.96,388.208L1473.8,388.208L1473.8,400.045L1461.96,400.045L1461.96,388.208ZM1474.56,386.702L1461.21,386.702C1460.8,386.702 1460.46,387.04 1460.46,387.454L1460.46,400.796C1460.46,401.213 1460.8,401.55 1461.21,401.55L1474.56,401.55C1474.97,401.55 1475.31,401.213 1475.31,400.796L1475.31,387.454C1475.31,387.04 1474.97,386.702 1474.56,386.702" style="fill:rgb(65,64,77);fill-rule:nonzero;"/>
                <g id="g1890" transform="matrix(1,0,0,1,1429.48,382.099)">
                    <path id="path1892" d="M0,0L-8.957,0C-9.371,0 -9.709,0.337 -9.709,0.754C-9.709,1.168 -9.371,1.505 -8.957,1.505L0,1.505C0.414,1.505 0.751,1.168 0.751,0.754C0.751,0.337 0.414,0 0,0" style="fill:rgb(65,64,77);fill-rule:nonzero;"/>
                </g>
                <g id="g1894" transform="matrix(1,0,0,1,1450.92,382.099)">
                    <path id="path1896" d="M0,0L-8.957,0C-9.371,0 -9.709,0.337 -9.709,0.754C-9.709,1.168 -9.371,1.505 -8.957,1.505L0,1.505C0.414,1.505 0.751,1.168 0.751,0.754C0.751,0.337 0.414,0 0,0" style="fill:rgb(65,64,77);fill-rule:nonzero;"/>
                </g>
                <g id="g1898" transform="matrix(1,0,0,1,1472.36,382.099)">
                    <path id="path1900" d="M0,0L-8.957,0C-9.371,0 -9.709,0.337 -9.709,0.754C-9.709,1.168 -9.371,1.505 -8.957,1.505L0,1.505C0.414,1.505 0.754,1.168 0.754,0.754C0.754,0.337 0.414,0 0,0" style="fill:rgb(65,64,77);fill-rule:nonzero;"/>
                </g>
                <rect id="path1902" x="1407.02" y="411.31" width="79.381" height="30.104" style="fill:rgb(81,94,244);fill-rule:nonzero;"/>
                <path id="path1904" d="M1407.77,412.061L1485.65,412.061L1485.65,440.663L1407.77,440.663L1407.77,412.061ZM1486.4,410.559L1407.02,410.559C1406.6,410.559 1406.27,410.896 1406.27,411.31L1406.27,441.414C1406.27,441.831 1406.6,442.168 1407.02,442.168L1486.4,442.168C1486.82,442.168 1487.15,441.831 1487.15,441.414L1487.15,411.31C1487.15,410.896 1486.82,410.559 1486.4,410.559" style="fill:rgb(65,64,77);fill-rule:nonzero;"/>
                <g id="g1906" transform="matrix(1,0,0,1,1465.84,428.551)">
                    <path id="path1908" d="M0,0L-38.254,0C-38.667,0 -39.005,0.337 -39.005,0.754C-39.005,1.168 -38.667,1.505 -38.254,1.505L0,1.505C0.414,1.505 0.751,1.168 0.751,0.754C0.751,0.337 0.414,0 0,0" style="fill:rgb(65,64,77);fill-rule:nonzero;"/>
                </g>
                <g id="g1910" transform="matrix(1,0,0,1,1456.68,422.67)">
                    <path id="path1912" d="M0,0L-19.95,0C-20.364,0 -20.701,0.337 -20.701,0.754C-20.701,1.168 -20.364,1.505 -19.95,1.505L0,1.505C0.414,1.505 0.754,1.168 0.754,0.754C0.754,0.337 0.414,0 0,0" style="fill:rgb(65,64,77);fill-rule:nonzero;"/>
                </g>
                <rect id="path1914" x="1407.02" y="348.931" width="79.381" height="23.202" style="fill:rgb(218,218,218);fill-rule:nonzero;"/>
                <path id="path1916" d="M1407.77,349.685L1485.65,349.685L1485.65,371.381L1407.77,371.381L1407.77,349.685ZM1486.4,348.179L1407.02,348.179C1406.6,348.179 1406.27,348.517 1406.27,348.931L1406.27,372.132C1406.27,372.546 1406.6,372.883 1407.02,372.883L1486.4,372.883C1486.82,372.883 1487.15,372.546 1487.15,372.132L1487.15,348.931C1487.15,348.517 1486.82,348.179 1486.4,348.179" style="fill:rgb(65,64,77);fill-rule:nonzero;"/>
                <g id="g1918" transform="matrix(1,0,0,1,1431.68,364.644)">
                    <path id="path1920" d="M0,0L-13.346,0C-13.759,0 -14.1,0.337 -14.1,0.754C-14.1,1.168 -13.759,1.505 -13.346,1.505L0,1.505C0.414,1.505 0.751,1.168 0.751,0.754C0.751,0.337 0.414,0 0,0" style="fill:rgb(65,64,77);fill-rule:nonzero;"/>
                </g>
                <g id="g1922" transform="matrix(1,0,0,1,1431.68,359.671)">
                    <path id="path1924" d="M0,0L-13.346,0C-13.759,0 -14.1,0.337 -14.1,0.751C-14.1,1.168 -13.759,1.505 -13.346,1.505L0,1.505C0.414,1.505 0.751,1.168 0.751,0.751C0.751,0.337 0.414,0 0,0" style="fill:rgb(65,64,77);fill-rule:nonzero;"/>
                </g>
                <g id="g1926" transform="matrix(1,0,0,1,1425,354.698)">
                    <path id="path1928" d="M0,0L-6.673,0C-7.087,0 -7.424,0.337 -7.424,0.751C-7.424,1.168 -7.087,1.505 -6.673,1.505L0,1.505C0.414,1.505 0.751,1.168 0.751,0.751C0.751,0.337 0.414,0 0,0" style="fill:rgb(65,64,77);fill-rule:nonzero;"/>
                </g>
                <g id="g1930" transform="matrix(1,0,0,1,1453.11,364.644)">
                    <path id="path1932" d="M0,0L-13.346,0C-13.762,0 -14.1,0.337 -14.1,0.754C-14.1,1.168 -13.762,1.505 -13.346,1.505L0,1.505C0.414,1.505 0.751,1.168 0.751,0.754C0.751,0.337 0.414,0 0,0" style="fill:rgb(65,64,77);fill-rule:nonzero;"/>
                </g>
                <g id="g1934" transform="matrix(1,0,0,1,1453.11,359.671)">
                    <path id="path1936" d="M0,0L-13.346,0C-13.762,0 -14.1,0.337 -14.1,0.751C-14.1,1.168 -13.762,1.505 -13.346,1.505L0,1.505C0.414,1.505 0.751,1.168 0.751,0.751C0.751,0.337 0.414,0 0,0" style="fill:rgb(65,64,77);fill-rule:nonzero;"/>
                </g>
                <g id="g1938" transform="matrix(1,0,0,1,1446.44,354.698)">
                    <path id="path1940" d="M0,0L-6.673,0C-7.089,0 -7.427,0.337 -7.427,0.751C-7.427,1.168 -7.089,1.505 -6.673,1.505L0,1.505C0.414,1.505 0.751,1.168 0.751,0.751C0.751,0.337 0.414,0 0,0" style="fill:rgb(65,64,77);fill-rule:nonzero;"/>
                </g>
                <g id="g1942" transform="matrix(1,0,0,1,1474.56,364.644)">
                    <path id="path1944" d="M0,0L-13.346,0C-13.759,0 -14.097,0.337 -14.097,0.754C-14.097,1.168 -13.759,1.505 -13.346,1.505L0,1.505C0.414,1.505 0.751,1.168 0.751,0.754C0.751,0.337 0.414,0 0,0" style="fill:rgb(65,64,77);fill-rule:nonzero;"/>
                </g>
                <g id="g1946" transform="matrix(1,0,0,1,1474.56,359.671)">
                    <path id="path1948" d="M0,0L-13.346,0C-13.759,0 -14.097,0.337 -14.097,0.751C-14.097,1.168 -13.759,1.505 -13.346,1.505L0,1.505C0.414,1.505 0.751,1.168 0.751,0.751C0.751,0.337 0.414,0 0,0" style="fill:rgb(65,64,77);fill-rule:nonzero;"/>
                </g>
                <g id="g1950" transform="matrix(1,0,0,1,1467.88,354.698)">
                    <path id="path1952" d="M0,0L-6.673,0C-7.087,0 -7.424,0.337 -7.424,0.751C-7.424,1.168 -7.087,1.505 -6.673,1.505L0,1.505C0.414,1.505 0.751,1.168 0.751,0.751C0.751,0.337 0.414,0 0,0" style="fill:rgb(65,64,77);fill-rule:nonzero;"/>
                </g>
                <rect id="path1954" x="1439.77" y="336.929" width="41.117" height="7.503" style="fill:rgb(244,193,81);fill-rule:nonzero;"/>
                <path id="path1956" d="M1440.52,337.68L1480.14,337.68L1480.14,343.678L1440.52,343.678L1440.52,337.68ZM1480.89,336.175L1439.77,336.175C1439.35,336.175 1439.02,336.515 1439.02,336.929L1439.02,344.432C1439.02,344.846 1439.35,345.183 1439.77,345.183L1480.89,345.183C1481.3,345.183 1481.64,344.846 1481.64,344.432L1481.64,336.929C1481.64,336.515 1481.3,336.175 1480.89,336.175" style="fill:rgb(65,64,77);fill-rule:nonzero;"/>
                <rect id="path1958" x="1418.33" y="336.929" width="13.346" height="7.503" style="fill:rgb(244,193,81);fill-rule:nonzero;"/>
                <path id="path1960" d="M1419.08,337.68L1430.92,337.68L1430.92,343.678L1419.08,343.678L1419.08,337.68ZM1431.68,336.175L1418.33,336.175C1417.91,336.175 1417.58,336.515 1417.58,336.929L1417.58,344.432C1417.58,344.846 1417.91,345.183 1418.33,345.183L1431.68,345.183C1432.09,345.183 1432.43,344.846 1432.43,344.432L1432.43,336.929C1432.43,336.515 1432.09,336.175 1431.68,336.175" style="fill:rgb(65,64,77);fill-rule:nonzero;"/>
            </g>
        </g>
    </g>
</svg>
